<svg width="784" height="238" viewBox="0 0 784 238" fill="none" xmlns="http://www.w3.org/2000/svg">
<path d="M207.753 187.932V94.3135C207.753 92.3584 208.43 90.679 209.783 89.2754C211.137 87.8717 212.791 87.1699 214.746 87.1699H236.854C238.608 87.1699 240.463 87.8717 242.418 89.2754C244.373 90.679 245.977 92.3584 247.23 94.3135L292.648 164.17V94.1631C292.648 92.208 293.325 90.5537 294.679 89.2002C296.082 87.8467 297.762 87.1699 299.717 87.1699H312.65C314.605 87.1699 316.26 87.8467 317.613 89.2002C319.017 90.5537 319.719 92.2581 319.719 94.3135V187.932C319.719 189.887 319.017 191.566 317.613 192.97C316.26 194.323 314.605 195 312.65 195H287.686C285.73 195 283.725 194.323 281.67 192.97C279.615 191.566 277.985 189.887 276.782 187.932L235.199 123.414V187.932C235.199 189.887 234.497 191.566 233.094 192.97C231.74 194.323 230.086 195 228.131 195H214.896C212.941 195 211.262 194.323 209.858 192.97C208.455 191.566 207.753 189.887 207.753 187.932ZM332.577 93.4863C332.276 92.8848 332.126 92.2331 332.126 91.5312C332.126 90.7793 332.577 89.877 333.479 88.8242C334.432 87.7214 335.76 87.1699 337.465 87.1699H353.933C357.843 87.1699 360.826 89.5511 362.881 94.3135L391.981 159.132L421.082 94.3135C423.137 89.6012 426.12 87.2201 430.03 87.1699H446.498C448.253 87.1699 449.581 87.7214 450.483 88.8242C451.386 89.877 451.837 90.7793 451.837 91.5312C451.837 92.2331 451.712 92.8848 451.461 93.4863L408.148 187.33C405.792 192.443 402.208 195 397.396 195H386.567C381.755 195 378.171 192.443 375.814 187.33L332.577 93.4863ZM464.169 187.932V94.3135C464.169 92.3584 464.846 90.679 466.199 89.2754C467.553 87.8717 469.207 87.1699 471.162 87.1699H493.27C495.024 87.1699 496.879 87.8717 498.834 89.2754C500.789 90.679 502.393 92.3584 503.646 94.3135L549.064 164.17V94.1631C549.064 92.208 549.741 90.5537 551.095 89.2002C552.498 87.8467 554.178 87.1699 556.133 87.1699H569.066C571.021 87.1699 572.676 87.8467 574.029 89.2002C575.433 90.5537 576.135 92.2581 576.135 94.3135V187.932C576.135 189.887 575.433 191.566 574.029 192.97C572.676 194.323 571.021 195 569.066 195H544.102C542.146 195 540.141 194.323 538.086 192.97C536.031 191.566 534.401 189.887 533.198 187.932L491.615 123.414V187.932C491.615 189.887 490.913 191.566 489.51 192.97C488.156 194.323 486.502 195 484.547 195H471.312C469.357 195 467.678 194.323 466.274 192.97C464.871 191.566 464.169 189.887 464.169 187.932Z" fill="black"/>
<path fill-rule="evenodd" clip-rule="evenodd" d="M784 36.6392C711.501 22.2962 621.544 13.804 524.1 13.804C283.979 13.804 89.3231 65.3706 89.3231 128.981C89.3231 153.483 118.203 176.198 167.437 194.867C65.3276 174.789 0 144.023 0 109.534C0 49.0402 200.989 0 448.921 0C582.129 0 701.785 14.1562 784 36.6392Z" fill="black"/>
</svg>
