<svg width="1057" height="688" viewBox="0 0 1057 688" fill="none" xmlns="http://www.w3.org/2000/svg">
<path d="M987 568H711C704.373 568 699 573.373 699 580C699 586.627 704.373 592 711 592H987C993.627 592 999 586.627 999 580C999 573.373 993.627 568 987 568Z" fill="#E4EBF7"/>
<path d="M276 556H100C93.3726 556 88 561.373 88 568C88 574.627 93.3726 580 100 580H276C282.627 580 288 574.627 288 568C288 561.373 282.627 556 276 556Z" fill="#E4EBF7"/>
<path fill-rule="evenodd" clip-rule="evenodd" d="M806.258 160.338H228.128V120.467C228.128 111.818 235.168 104.806 243.852 104.806H790.534C799.218 104.806 806.258 111.818 806.258 120.467V160.338Z" fill="#253368"/>
<path fill-rule="evenodd" clip-rule="evenodd" d="M268.667 130.879C268.667 136.307 264.276 140.707 258.859 140.707C253.443 140.707 249.052 136.307 249.052 130.879C249.052 125.451 253.443 121.05 258.859 121.05C264.276 121.05 268.667 125.451 268.667 130.879Z" fill="#FF7946"/>
<path fill-rule="evenodd" clip-rule="evenodd" d="M305.284 130.879C305.284 136.307 300.893 140.707 295.476 140.707C290.06 140.707 285.67 136.307 285.67 130.879C285.67 125.451 290.06 121.05 295.476 121.05C300.893 121.05 305.284 125.451 305.284 130.879Z" fill="#FAAD14"/>
<path fill-rule="evenodd" clip-rule="evenodd" d="M341.901 130.879C341.901 136.307 337.511 140.707 332.094 140.707C326.678 140.707 322.288 136.307 322.288 130.879C322.288 125.451 326.678 121.05 332.094 121.05C337.511 121.05 341.901 125.451 341.901 130.879Z" fill="#7CB305"/>
<path fill-rule="evenodd" clip-rule="evenodd" d="M245.058 544.69C235.388 544.69 227.547 537.688 227.547 529.05V156.656H805.707V529.05C805.707 537.688 797.867 544.69 788.196 544.69H245.058Z" fill="#E4EBF7"/>
<path d="M771.817 185H427.183C423.216 185 420 188.217 420 192.186V513.814C420 517.783 423.216 521 427.183 521H771.817C775.784 521 779 517.783 779 513.814V192.186C779 188.217 775.784 185 771.817 185Z" fill="white"/>
<path d="M383.797 182H266.203C262.225 182 259 185.217 259 189.186V510.814C259 514.783 262.225 518 266.203 518H383.797C387.775 518 391 514.783 391 510.814V189.186C391 185.217 387.775 182 383.797 182Z" fill="white"/>
<path d="M357.918 316H292.082C289.828 316 288 317.802 288 320.024V329.976C288 332.198 289.828 334 292.082 334H357.918C360.172 334 362 332.198 362 329.976V320.024C362 317.802 360.172 316 357.918 316Z" fill="#597EF7"/>
<path d="M357.98 351H292.02C289.8 351 288 352.728 288 354.86V364.14C288 366.272 289.8 368 292.02 368H357.98C360.2 368 362 366.272 362 364.14V354.86C362 352.728 360.2 351 357.98 351Z" fill="#ADC6FF"/>
<path d="M357.98 385H292.02C289.8 385 288 386.83 288 389.087V398.913C288 401.17 289.8 403 292.02 403H357.98C360.2 403 362 401.17 362 398.913V389.087C362 386.83 360.2 385 357.98 385Z" fill="#FF7946"/>
<path d="M357.98 420H292.02C289.8 420 288 421.83 288 424.087V433.913C288 436.17 289.8 438 292.02 438H357.98C360.2 438 362 436.17 362 433.913V424.087C362 421.83 360.2 420 357.98 420Z" fill="#ADC6FF"/>
<path d="M665.198 431H458.802C456.15 431 454 433.011 454 435.491V435.509C454 437.989 456.15 440 458.802 440H665.198C667.85 440 670 437.989 670 435.509V435.491C670 433.011 667.85 431 665.198 431Z" fill="#597EF7"/>
<path d="M665.198 482H458.802C456.15 482 454 484.011 454 486.491V486.509C454 488.989 456.15 491 458.802 491H665.198C667.85 491 670 488.989 670 486.509V486.491C670 484.011 667.85 482 665.198 482Z" fill="#597EF7"/>
<path d="M737.198 455H458.802C456.15 455 454 457.234 454 459.99V460.01C454 462.766 456.15 465 458.802 465H737.198C739.85 465 742 462.766 742 460.01V459.99C742 457.234 739.85 455 737.198 455Z" fill="#597EF7"/>
<path d="M733.409 217H463.591C458.294 217 454 221.279 454 226.557V399.443C454 404.721 458.294 409 463.591 409H733.409C738.706 409 743 404.721 743 399.443V226.557C743 221.279 738.706 217 733.409 217Z" fill="#597EF7"/>
<path d="M327 278C345.225 278 360 263.225 360 245C360 226.775 345.225 212 327 212C308.775 212 294 226.775 294 245C294 263.225 308.775 278 327 278Z" fill="#FAAD14"/>
<path d="M327.005 278C336.647 278.005 345.797 273.861 352 266.68C347.112 257.652 337.487 252 327 252C316.513 252 306.888 257.652 302 266.68C308.206 273.863 317.36 278.007 327.005 278Z" fill="#253368"/>
<path d="M327.5 253C334.404 253 340 247.404 340 240.5C340 233.596 334.404 228 327.5 228C320.596 228 315 233.596 315 240.5C315 247.404 320.596 253 327.5 253Z" fill="#253368"/>
<path d="M744.662 284C745.401 284 746 284.448 746 285C746 285.527 745.454 285.959 744.762 285.997L744.662 286H457.338C456.599 286 456 285.552 456 285C456 284.473 456.546 284.041 457.238 284.003L457.338 284H744.662Z" fill="white"/>
<path d="M521.5 214C522.291 214 522.939 214.547 522.996 215.242L523 215.342V409.658C523 410.399 522.328 411 521.5 411C520.709 411 520.061 410.453 520.004 409.758L520 409.658V215.342C520 214.601 520.672 214 521.5 214Z" fill="white"/>
<path d="M598.5 214C599.291 214 599.939 214.547 599.996 215.242L600 215.342V409.658C600 410.399 599.328 411 598.5 411C597.709 411 597.061 410.453 597.004 409.758L597 409.658V215.342C597 214.601 597.672 214 598.5 214Z" fill="white"/>
<path d="M673.5 214C674.291 214 674.939 214.547 674.996 215.242L675 215.342V409.658C675 410.399 674.328 411 673.5 411C672.709 411 672.061 410.453 672.004 409.758L672 409.658V215.342C672 214.601 672.672 214 673.5 214Z" fill="white"/>
<path d="M744.662 348C745.401 348 746 348.672 746 349.5C746 350.291 745.454 350.939 744.762 350.996L744.662 351H457.338C456.599 351 456 350.328 456 349.5C456 348.709 456.546 348.061 457.238 348.004L457.338 348H744.662Z" fill="white"/>
<path d="M93.4033 163.981H171.339C200.541 163.981 224.214 187.654 224.214 216.856C224.214 246.059 200.541 269.731 171.339 269.731H93.4033C64.2013 269.731 40.5283 246.059 40.5283 216.856C40.5283 187.654 64.2013 163.981 93.4033 163.981Z" fill="#4E5C93"/>
<path fill-rule="evenodd" clip-rule="evenodd" d="M198.74 254.351V282.032C198.74 283.248 197.754 284.235 196.537 284.235C195.966 284.235 195.418 284.013 195.007 283.617L174.666 263.99L198.74 254.351Z" fill="#4E5C93"/>
<path d="M167.759 223.466C163.044 223.466 159.222 219.644 159.222 214.929C159.222 210.214 163.044 206.392 167.759 206.392C172.474 206.392 176.296 210.214 176.296 214.929C176.296 219.644 172.474 223.466 167.759 223.466Z" fill="white"/>
<path d="M132.784 223.466C128.069 223.466 124.247 219.644 124.247 214.929C124.247 210.214 128.069 206.392 132.784 206.392C137.499 206.392 141.321 210.214 141.321 214.929C141.321 219.644 137.499 223.466 132.784 223.466Z" fill="white"/>
<path d="M96.9834 223.466C92.2685 223.466 88.4463 219.644 88.4463 214.929C88.4463 210.214 92.2685 206.392 96.9834 206.392C101.698 206.392 105.521 210.214 105.521 214.929C105.521 219.644 101.698 223.466 96.9834 223.466Z" fill="white"/>
<path fill-rule="evenodd" clip-rule="evenodd" d="M152.851 482.165C152.851 486.495 149.341 490.006 145.011 490.006C140.681 490.006 137.171 486.495 137.171 482.165C137.171 477.835 140.681 474.325 145.011 474.325C149.341 474.325 152.851 477.835 152.851 482.165Z" fill="#253368"/>
<path fill-rule="evenodd" clip-rule="evenodd" d="M143.54 552.726H146.575V484.507H143.54V552.726Z" fill="#253368"/>
<path fill-rule="evenodd" clip-rule="evenodd" d="M143.54 552.726L108.194 558.613L105.913 556.966L143.54 545.883V552.726Z" fill="#253368"/>
<path fill-rule="evenodd" clip-rule="evenodd" d="M146.575 552.726L181.921 558.613L184.202 556.966L146.575 545.883V552.726Z" fill="#253368"/>
<path fill-rule="evenodd" clip-rule="evenodd" d="M142.65 560.641H147.465V550.756H142.65V560.641Z" fill="#253368"/>
<path fill-rule="evenodd" clip-rule="evenodd" d="M111.506 560.772C111.506 563.029 109.676 564.859 107.419 564.859C105.162 564.859 103.332 563.029 103.332 560.772C103.332 558.515 105.162 556.686 107.419 556.686C109.676 556.686 111.506 558.515 111.506 560.772Z" fill="#253368"/>
<path fill-rule="evenodd" clip-rule="evenodd" d="M149.144 560.772C149.144 563.029 147.314 564.859 145.057 564.859C142.801 564.859 140.971 563.029 140.971 560.772C140.971 558.515 142.801 556.686 145.057 556.686C147.314 556.686 149.144 558.515 149.144 560.772Z" fill="#253368"/>
<path fill-rule="evenodd" clip-rule="evenodd" d="M187.14 560.772C187.14 563.029 185.311 564.859 183.053 564.859C180.797 564.859 178.967 563.029 178.967 560.772C178.967 558.515 180.797 556.686 183.053 556.686C185.311 556.686 187.14 558.515 187.14 560.772Z" fill="#253368"/>
<path fill-rule="evenodd" clip-rule="evenodd" d="M194.155 480.726H95.8672C95.8672 471.066 103.698 463.235 113.359 463.235H176.663C186.323 463.235 194.155 471.066 194.155 480.726Z" fill="#A3B5D6"/>
<path fill-rule="evenodd" clip-rule="evenodd" d="M182.475 409.808C182.475 409.808 181.685 422.95 169.659 422.022C157.397 421.076 158.715 407.811 158.715 407.811C158.715 407.811 158.119 399.566 158.974 388.478C159.643 379.814 160.67 368.499 161.626 362.997C162.657 357.058 168.129 353.139 173.761 353.573C182.322 354.234 185.225 361.131 185.036 367.124C184.852 372.953 184.575 382.543 184.229 388.963C183.565 401.307 182.475 409.808 182.475 409.808Z" fill="#ADC6FF"/>
<path fill-rule="evenodd" clip-rule="evenodd" d="M209.322 425.837C210.769 431.241 222.805 429.406 222.805 429.406L228.704 434.209C229.639 434.855 230.039 434.225 230.548 434.34C231.918 434.653 232.247 433.214 232.247 433.214C232.77 433.096 233.448 433.631 233.951 432.376C233.951 432.376 234.927 432.525 235.26 431.376C235.385 430.949 233.501 425.162 232.377 421.776C231.883 420.289 230.596 419.209 229.047 418.976L214.643 416.807C214.643 416.807 207.375 418.568 209.322 425.837Z" fill="#C99382"/>
<path d="M221.92 425.634C221.756 425.564 221.565 425.64 221.495 425.805C221.433 425.951 221.486 426.118 221.614 426.203L221.666 426.23L225.921 428.046L230.169 433.895C230.262 434.024 230.433 434.064 230.571 433.997L230.621 433.967C230.75 433.874 230.79 433.703 230.723 433.565L230.693 433.514L226.392 427.594C226.369 427.562 226.341 427.535 226.309 427.514L226.258 427.486L221.92 425.634Z" fill="#9B6160"/>
<path d="M224.813 423.849C224.657 423.762 224.46 423.817 224.372 423.973C224.294 424.111 224.329 424.283 224.447 424.381L224.495 424.414L228.4 426.614L231.863 432.67C231.942 432.808 232.107 432.866 232.252 432.815L232.305 432.79C232.443 432.711 232.501 432.546 232.45 432.401L232.426 432.348L228.919 426.216C228.9 426.182 228.874 426.152 228.845 426.127L228.797 426.094L224.813 423.849Z" fill="#9B6160"/>
<path d="M227.616 422.2C227.476 422.089 227.272 422.112 227.161 422.253C227.062 422.377 227.07 422.552 227.171 422.667L227.214 422.708L229.844 424.788L233.003 431.287C233.073 431.43 233.234 431.499 233.381 431.457L233.436 431.436C233.579 431.367 233.648 431.206 233.607 431.058L233.586 431.003L230.394 424.438C230.38 424.409 230.361 424.382 230.339 424.359L230.304 424.326L227.616 422.2Z" fill="#9B6160"/>
<path fill-rule="evenodd" clip-rule="evenodd" d="M171.122 400.636C171.122 400.636 159.003 398.088 156.542 408.146C154.005 418.519 165.516 421.502 165.516 421.502C165.516 421.502 173.67 423.402 183.708 425.787C189.836 427.243 196.635 428.716 201.725 429.077C207.236 429.468 208.483 426.65 209.713 421.62C211.174 415.648 211.17 413.031 206.069 410.984C201.205 409.033 194.367 407.275 189.129 405.672C179.142 402.619 171.122 400.636 171.122 400.636Z" fill="#ADC6FF"/>
<path fill-rule="evenodd" clip-rule="evenodd" d="M212.252 428.263L215.097 416.632L207.445 413.872L204.189 427.177L212.252 428.263Z" fill="#ADC6FF"/>
<path fill-rule="evenodd" clip-rule="evenodd" d="M220.636 449.542C196.566 443.289 171.62 437.07 151.662 432.578C151.662 432.578 136.6 431.756 135.804 445.503C135.024 458.977 151.296 462.98 151.296 462.98L216.659 473.139C216.659 473.139 227.323 474.676 229.105 462.844C230.729 452.052 220.636 449.542 220.636 449.542Z" fill="#597EF7"/>
<path fill-rule="evenodd" clip-rule="evenodd" d="M216.395 513.229C212.122 512.372 208.166 515.721 208.318 520.077C208.492 525.088 208.692 531.859 208.809 539.153C208.929 546.661 209.044 552.882 209.581 553.672C211.948 557.153 216.677 558.448 221.537 561.897C225.384 564.627 226.048 565.924 230.949 566.842C237.897 568.143 234.658 565.196 226.944 555.873C220.07 547.568 220.533 543.673 220.533 543.673L221.812 520.218C221.994 516.866 219.687 513.889 216.395 513.229Z" fill="#C99382"/>
<path fill-rule="evenodd" clip-rule="evenodd" d="M226.246 553.668C231.266 559.248 237.018 563.658 236.879 566.307C236.739 568.957 234.65 571.349 226.008 568.283C220.093 566.184 221.786 564.914 216.141 561.242C213.321 559.407 212.294 559.604 209.694 557.47C208.205 555.554 208.875 546.248 208.875 546.248L218.768 557.09C218.768 557.09 216.196 552.041 218.31 550.946C220.424 549.851 222.369 549.106 223.616 550.004C224.862 550.902 226.246 553.668 226.246 553.668Z" fill="#7D4556"/>
<path fill-rule="evenodd" clip-rule="evenodd" d="M231.144 463.028C227.899 502.416 224.206 540.954 224.206 540.954L207.531 540.943L204.926 461.611C204.926 461.611 206.389 452.508 219.269 450.851C231.115 449.326 231.144 463.028 231.144 463.028Z" fill="#597EF7"/>
<path fill-rule="evenodd" clip-rule="evenodd" d="M111.549 450.387C113.05 434.499 113.448 426.331 115.229 423.347C153.52 424.441 163.058 423.937 163.058 423.937C163.058 423.937 163.449 429.557 165.213 446.857C165.213 446.857 153.424 468.339 138.211 468.339C124.496 468.339 111.549 450.387 111.549 450.387Z" fill="#597EF7"/>
<path fill-rule="evenodd" clip-rule="evenodd" d="M115.229 423.347L115.953 416.141L162.84 416.704L163.058 423.92C163.058 423.92 138.244 424.876 115.229 423.347Z" fill="#597EF7"/>
<path fill-rule="evenodd" clip-rule="evenodd" d="M136.308 327.961C136.308 327.961 129.796 323.969 132.403 316.88C129.763 310.542 133.475 306.899 133.475 306.899C133.475 306.899 134.012 298.782 139.417 298.595C143.224 290.434 152.533 294.177 152.533 294.177C152.533 294.177 158.841 289.533 167.169 296.748C173.497 297.294 173.68 294.148 175.607 296.439C177.535 298.73 178.187 303.902 175.369 305.783C179.955 308.038 175.309 315.273 175.309 315.273C175.309 315.273 176.625 319.663 171.056 322.635C165.486 325.608 162.913 335.757 153.764 338.53C144.961 341.199 135.934 337.97 136.308 327.961Z" fill="#7D4556"/>
<path fill-rule="evenodd" clip-rule="evenodd" d="M138.964 343.369L141.61 329.48L160.052 332.748L159.598 345.002C159.396 350.473 154.723 354.7 149.259 354.354C149.154 354.347 149.051 354.34 148.946 354.334C143.359 353.982 138.283 348.926 138.964 343.369Z" fill="#C99382"/>
<path fill-rule="evenodd" clip-rule="evenodd" d="M146.58 308.276C146.58 308.276 147.579 313.26 143.725 314.397C144.273 320.812 141.508 320.206 141.508 320.206C141.508 320.206 137.166 314.451 134.031 319.356C131.053 324.015 135.95 331.04 140.618 330.047C148.149 342.577 163.624 343.464 168.89 335.429C172.089 330.546 171.077 323.348 171.53 319.982C172.643 311.711 171.157 309.175 171.157 309.175C171.157 309.175 167.976 309.794 164.557 307.135C160.788 309.826 155.507 307.006 155.507 307.006C155.507 307.006 151.852 311.507 146.58 308.276Z" fill="#C99382"/>
<path d="M137.973 320.378C136.908 320.151 136.174 320.415 135.77 321.013C135.589 321.281 135.514 321.546 135.497 321.74C135.481 321.934 135.624 322.105 135.818 322.122C136.013 322.139 136.183 321.995 136.2 321.801C136.208 321.716 136.251 321.56 136.354 321.408C136.591 321.057 137.032 320.899 137.825 321.068C138.574 321.228 139.194 321.806 139.552 322.577C139.702 322.9 139.788 323.227 139.798 323.485C139.805 323.673 139.772 323.769 139.765 323.773C139.038 324.172 138.47 324.747 138.281 325.384C138.039 326.2 138.431 326.997 139.46 327.661C139.623 327.766 139.842 327.719 139.947 327.556C140.053 327.392 140.006 327.174 139.842 327.068C139.056 326.561 138.814 326.069 138.957 325.585C139.085 325.156 139.525 324.709 140.104 324.392C141.276 323.75 139.9 320.79 137.973 320.378Z" fill="#9B6160"/>
<path d="M139.012 322.97C138.686 322.931 138.349 322.919 138.027 322.951C137.154 323.039 136.565 323.446 136.569 324.262C136.569 324.456 136.728 324.614 136.923 324.613C137.117 324.612 137.275 324.453 137.274 324.259C137.272 323.894 137.54 323.709 138.098 323.653C138.36 323.627 138.649 323.637 138.927 323.671L139.055 323.688C139.091 323.693 139.118 323.698 139.137 323.702C139.328 323.739 139.513 323.614 139.55 323.422C139.587 323.231 139.462 323.046 139.271 323.009L139.138 322.987C139.101 322.982 139.059 322.976 139.012 322.97Z" fill="#9B6160"/>
<path fill-rule="evenodd" clip-rule="evenodd" d="M158.809 319.891C158.515 323.276 155.535 325.783 152.148 325.492C148.763 325.199 146.256 322.217 146.548 318.832C146.84 315.446 149.822 312.938 153.207 313.231C156.594 313.523 159.101 316.505 158.809 319.891Z" fill="white"/>
<path d="M153.245 312.799C156.869 313.112 159.554 316.304 159.24 319.928C158.926 323.552 155.736 326.236 152.111 325.924C148.487 325.611 145.803 322.419 146.116 318.795C146.423 315.23 149.517 312.574 153.067 312.786L153.245 312.799ZM146.98 318.869C146.708 322.016 149.039 324.788 152.186 325.06C155.333 325.331 158.104 323.001 158.377 319.853C158.649 316.706 156.318 313.934 153.17 313.663C150.023 313.391 147.251 315.722 146.98 318.869Z" fill="#7D4556"/>
<path fill-rule="evenodd" clip-rule="evenodd" d="M173.726 320.601C173.433 323.987 170.452 326.494 167.066 326.202C163.68 325.91 161.172 322.928 161.466 319.542C161.757 316.157 164.739 313.649 168.125 313.941C171.511 314.234 174.018 317.216 173.726 320.601Z" fill="white"/>
<path d="M168.162 313.509C171.787 313.822 174.471 317.014 174.158 320.638C173.844 324.263 170.653 326.946 167.029 326.634C163.404 326.321 160.72 323.129 161.034 319.505C161.341 315.94 164.434 313.284 167.984 313.496L168.162 313.509ZM161.898 319.579C161.625 322.726 163.956 325.499 167.103 325.77C170.251 326.041 173.021 323.711 173.294 320.564C173.566 317.417 171.235 314.645 168.087 314.373C164.94 314.101 162.169 316.433 161.898 319.579Z" fill="#7D4556"/>
<path d="M160.322 318.886C160.152 318.982 160.093 319.197 160.189 319.366L160.278 319.527C160.35 319.659 160.43 319.809 160.517 319.975C160.764 320.45 161.011 320.956 161.242 321.471C161.45 321.935 161.634 322.384 161.788 322.81C162.306 324.243 162.425 325.28 162.1 325.654C161.735 326.074 161.259 326.322 160.688 326.425C160.107 326.53 159.472 326.478 158.854 326.327C158.622 326.27 158.45 326.214 158.359 326.179C158.178 326.108 157.973 326.197 157.903 326.379C157.832 326.56 157.921 326.765 158.103 326.836L158.224 326.879C158.341 326.919 158.497 326.966 158.687 327.012C159.392 327.185 160.121 327.244 160.813 327.119C161.534 326.989 162.156 326.666 162.632 326.117C163.198 325.465 163.058 324.249 162.451 322.57C162.291 322.127 162.1 321.662 161.886 321.183C161.649 320.654 161.396 320.136 161.142 319.65L160.974 319.331L160.802 319.018C160.706 318.849 160.491 318.79 160.322 318.886Z" fill="#9B6160"/>
<path fill-rule="evenodd" clip-rule="evenodd" d="M153.822 328.413C153.822 328.413 159.438 329.55 163.546 329.252C163.546 329.252 162.061 333.206 158.051 332.37C154.49 331.627 153.822 328.413 153.822 328.413Z" fill="white"/>
<path d="M153.895 328.049L154.632 328.187C155.218 328.29 155.864 328.394 156.551 328.49C158.019 328.697 159.466 328.843 160.818 328.903C161.804 328.946 162.711 328.941 163.519 328.883C163.788 328.863 163.988 329.13 163.893 329.383L163.845 329.5C163.796 329.613 163.726 329.76 163.632 329.934C163.415 330.335 163.145 330.737 162.818 331.112C161.626 332.483 160.013 333.158 157.975 332.733C156.509 332.427 155.388 331.706 154.576 330.7C154.189 330.221 153.898 329.708 153.689 329.195C153.562 328.883 153.49 328.637 153.459 328.488C153.405 328.228 153.635 327.997 153.895 328.049ZM154.503 328.916L154.367 328.891L154.375 328.915C154.559 329.365 154.814 329.815 155.153 330.235C155.861 331.112 156.834 331.737 158.126 332.007C159.88 332.373 161.231 331.807 162.259 330.626L162.426 330.424C162.588 330.22 162.732 330.008 162.859 329.795L162.938 329.656L162.925 329.657C162.261 329.682 161.545 329.677 160.785 329.643C159.408 329.583 157.937 329.434 156.447 329.224C155.752 329.126 155.097 329.021 154.503 328.916Z" fill="#7D4556"/>
<path d="M163.79 311.917C163.613 311.814 163.387 311.875 163.284 312.052C163.181 312.229 163.241 312.455 163.418 312.558C165.32 313.662 167.748 314.108 170.292 313.639C170.493 313.602 170.626 313.409 170.589 313.208C170.552 313.006 170.359 312.873 170.158 312.91C167.79 313.347 165.542 312.933 163.79 311.917Z" fill="#7D4556"/>
<path d="M160.683 317.556C159.985 317.465 159.249 317.466 158.558 317.521L158.291 317.546L158.175 317.56L158.289 318.419L158.536 318.393C158.564 318.391 158.595 318.388 158.627 318.385C159.263 318.334 159.943 318.334 160.571 318.415C160.948 318.464 161.284 318.541 161.569 318.647L161.707 318.702L162.051 317.906C161.656 317.736 161.197 317.622 160.683 317.556Z" fill="#7D4556"/>
<path d="M167.72 318.601C166.664 318.51 165.892 318.969 165.402 319.763C165.144 320.182 165.014 320.595 164.966 320.888C164.927 321.124 165.087 321.347 165.323 321.386C165.559 321.425 165.782 321.264 165.821 321.028L165.836 320.958C165.846 320.913 165.862 320.855 165.884 320.786C165.945 320.591 166.03 320.397 166.14 320.218C166.469 319.685 166.942 319.404 167.645 319.465C168.287 319.52 168.657 319.846 168.855 320.394C168.961 320.687 169.002 321.001 169.003 321.272L168.999 321.432C168.978 321.671 169.155 321.881 169.393 321.901C169.612 321.92 169.807 321.774 169.854 321.565L169.864 321.487C169.865 321.479 169.865 321.468 169.866 321.444C169.885 321.042 169.839 320.567 169.67 320.099C169.364 319.252 168.723 318.687 167.72 318.601Z" fill="#7D4556"/>
<path d="M152.972 317.327C151.917 317.236 151.145 317.695 150.654 318.489C150.396 318.908 150.265 319.321 150.217 319.614C150.178 319.85 150.338 320.073 150.575 320.112C150.789 320.147 150.993 320.018 151.058 319.817L151.1 319.635C151.109 319.6 151.121 319.558 151.135 319.512C151.197 319.318 151.282 319.123 151.392 318.945C151.721 318.411 152.194 318.13 152.898 318.191C153.539 318.246 153.909 318.572 154.107 319.12C154.213 319.414 154.255 319.727 154.256 319.998L154.251 320.159C154.231 320.397 154.407 320.607 154.646 320.628C154.865 320.647 155.059 320.5 155.106 320.291L155.117 320.198L155.119 320.171C155.138 319.769 155.092 319.293 154.922 318.825C154.616 317.978 153.975 317.414 152.972 317.327Z" fill="#7D4556"/>
<path d="M146.548 318.832L140.49 318.308" stroke="#7D4556" stroke-width="1.383"/>
<path d="M157.172 311.314C157.095 311.124 156.879 311.032 156.69 311.109C156.011 311.383 155.206 311.575 154.303 311.694C152.933 311.874 151.464 311.875 150.088 311.767L149.804 311.742L149.363 311.696C149.16 311.669 148.974 311.812 148.948 312.015C148.921 312.218 149.064 312.404 149.267 312.43L149.473 312.454L149.735 312.48C149.828 312.489 149.927 312.497 150.03 312.505C151.453 312.617 152.97 312.617 154.399 312.429C155.361 312.303 156.224 312.096 156.967 311.796C157.157 311.72 157.248 311.504 157.172 311.314Z" fill="#7D4556"/>
<path d="M157.747 336.194C157.553 336.185 157.388 336.336 157.379 336.53L157.367 336.714C157.36 336.814 157.349 336.938 157.333 337.081C157.289 337.497 157.224 337.913 157.136 338.299C156.952 339.101 156.687 339.65 156.396 339.81C156.225 339.903 156.162 340.117 156.256 340.288C156.349 340.459 156.564 340.522 156.735 340.428C157.262 340.139 157.596 339.445 157.823 338.457C157.919 338.041 157.988 337.598 158.035 337.156L158.063 336.863L158.084 336.562C158.092 336.368 157.942 336.203 157.747 336.194Z" fill="#9B6160"/>
<path d="M158.977 337.403C158.782 337.401 158.623 337.558 158.621 337.752L158.613 338.038C158.61 338.099 158.607 338.168 158.603 338.242C158.581 338.611 158.546 338.98 158.494 339.322C158.443 339.66 158.377 339.953 158.298 340.183C158.235 340.367 158.333 340.568 158.517 340.631C158.701 340.695 158.902 340.597 158.965 340.412C159.06 340.136 159.134 339.805 159.192 339.428C159.247 339.062 159.284 338.672 159.307 338.282L159.321 337.973C159.324 337.885 159.326 337.812 159.326 337.759C159.328 337.564 159.172 337.405 158.977 337.403Z" fill="#9B6160"/>
<path d="M156.118 337.653C155.932 337.596 155.735 337.7 155.678 337.887L155.648 337.978C155.63 338.034 155.605 338.104 155.575 338.186C155.492 338.414 155.397 338.641 155.295 338.852C155.105 339.243 154.91 339.522 154.754 339.629L154.709 339.655C154.534 339.741 154.461 339.952 154.547 340.127C154.632 340.302 154.843 340.375 155.018 340.289C155.366 340.119 155.655 339.725 155.929 339.16C156.043 338.926 156.146 338.677 156.237 338.429L156.318 338.198C156.332 338.156 156.344 338.121 156.352 338.093C156.409 337.907 156.304 337.71 156.118 337.653Z" fill="#9B6160"/>
<path d="M160.048 337.137C159.875 337.162 159.749 337.31 159.746 337.479L159.75 337.537L160.057 339.645C160.086 339.838 160.265 339.971 160.457 339.943C160.631 339.918 160.756 339.77 160.759 339.601L160.755 339.543L160.448 337.435C160.423 337.261 160.275 337.136 160.105 337.133L160.048 337.137Z" fill="#9B6160"/>
<path d="M147.943 336.981C147.78 336.874 147.561 336.919 147.455 337.082C147.348 337.245 147.393 337.464 147.556 337.57C148.105 337.93 148.671 338.257 149.252 338.552C152.793 340.352 156.491 340.862 159.667 340.645L159.963 340.622C160.233 340.6 160.424 340.577 160.528 340.561C160.721 340.532 160.853 340.352 160.824 340.16C160.795 339.967 160.615 339.835 160.423 339.864L160.261 339.885C160.192 339.892 160.108 339.901 160.009 339.91L159.905 339.919C156.782 340.179 153.089 339.711 149.572 337.924C149.013 337.64 148.47 337.326 147.943 336.981Z" fill="#9B6160"/>
<path d="M155.18 325.952C155.125 325.765 154.929 325.658 154.742 325.713L154.58 325.765C154.454 325.806 154.315 325.855 154.165 325.911C153.736 326.071 153.307 326.259 152.905 326.474C151.559 327.193 150.786 328.045 150.973 329.076C151.008 329.267 151.192 329.395 151.383 329.36C151.575 329.325 151.702 329.141 151.667 328.95C151.554 328.327 152.137 327.684 153.237 327.096C153.609 326.898 154.011 326.722 154.412 326.571L154.604 326.501C154.752 326.449 154.868 326.411 154.942 326.39C155.129 326.335 155.235 326.138 155.18 325.952Z" fill="#9B6160"/>
<path fill-rule="evenodd" clip-rule="evenodd" d="M138.001 344.027L136.031 347.683C136.031 347.683 122.368 349.322 115.696 353.341C109.664 356.974 110.423 395.335 111.352 408.246C108.102 423.404 120.229 422.181 120.229 422.181L163.509 425.751C163.509 425.751 169.844 422.154 166.694 411.472C167.502 402.786 181.606 361.129 176.158 355.681C171.921 351.445 161.695 350.616 161.695 350.616L161.009 346.369C161.009 346.369 154.445 345.62 138.001 344.027Z" fill="#ADC6FF"/>
<path d="M174.074 372.268C173.876 372.249 173.7 372.394 173.68 372.592C173.308 376.419 172.582 380.987 171.56 386.14C170.984 389.043 170.323 392.086 169.593 395.226C168.732 398.931 167.816 402.602 166.893 406.105L166.351 408.145C166.196 408.719 166.048 409.267 165.905 409.788L165.534 411.132L165.219 412.246C165.164 412.437 165.275 412.637 165.466 412.692C165.658 412.747 165.858 412.637 165.913 412.445L166.29 411.104L166.601 409.978C166.815 409.196 167.043 408.352 167.283 407.452C168.31 403.596 169.337 399.514 170.296 395.389C171.027 392.242 171.69 389.192 172.267 386.28L172.499 385.097C173.404 380.404 174.052 376.219 174.398 372.662C174.418 372.464 174.272 372.288 174.074 372.268Z" fill="#597EF7"/>
<path d="M139.398 349.702C139.206 349.651 139.008 349.766 138.958 349.959C138.907 350.151 139.022 350.348 139.214 350.399C145.971 352.179 152.604 352.635 158.189 352.332L158.652 352.305C158.937 352.288 159.196 352.269 159.425 352.25L159.883 352.208C159.899 352.206 159.913 352.204 159.924 352.203C160.122 352.181 160.265 352.002 160.242 351.804C160.22 351.606 160.041 351.464 159.843 351.486L159.528 351.517L159.007 351.559C158.881 351.568 158.747 351.577 158.607 351.586C152.998 351.935 146.258 351.509 139.398 349.702Z" fill="#597EF7"/>
<path fill-rule="evenodd" clip-rule="evenodd" d="M182.277 520.929C177.633 520.162 173.487 523.922 173.809 528.618C174.181 534.021 174.645 541.322 175.039 549.192C175.444 557.291 175.796 564.002 176.405 564.835C179.086 568.506 184.241 569.731 189.613 573.275C193.864 576.081 194.629 577.457 199.953 578.267C207.501 579.417 203.897 576.355 195.228 566.575C187.505 557.862 187.86 553.64 187.86 553.64L188.38 528.276C188.454 524.651 185.855 521.521 182.277 520.929Z" fill="#C99382"/>
<path fill-rule="evenodd" clip-rule="evenodd" d="M194.394 564.22C200.017 570.058 206.388 574.607 206.334 577.473C206.281 580.338 204.114 582.997 194.673 580.003C188.211 577.954 189.991 576.523 183.764 572.765C180.654 570.888 179.551 571.139 176.667 568.93C174.988 566.917 175.37 556.848 175.37 556.848L186.448 568.187C186.448 568.187 183.485 562.831 185.727 561.573C187.968 560.314 190.042 559.438 191.421 560.361C192.799 561.283 194.394 564.22 194.394 564.22Z" fill="#7D4556"/>
<path fill-rule="evenodd" clip-rule="evenodd" d="M195.88 465.645C193.857 508.281 191.317 550.017 191.317 550.017L173.318 550.633L167.529 465.099C167.529 465.099 168.594 452.317 182.606 452.946C195.249 453.513 195.88 465.645 195.88 465.645Z" fill="#597EF7"/>
<path fill-rule="evenodd" clip-rule="evenodd" d="M188.326 451.682C168.865 444.466 144.013 439.219 126.011 435.559C126.011 435.559 112.505 437.36 111.592 450.633C110.698 463.642 125.371 466.953 125.371 466.953L184.395 474.552C184.395 474.552 194.027 475.675 195.805 464.215C197.427 453.762 188.326 451.682 188.326 451.682Z" fill="#597EF7"/>
<path d="M114.727 425.32C114.532 425.32 114.374 425.478 114.374 425.673C114.374 425.848 114.502 425.994 114.669 426.021L114.727 426.026H162.742C162.937 426.026 163.095 425.868 163.095 425.673C163.095 425.498 162.967 425.352 162.799 425.325L162.742 425.32H114.727Z" fill="#253368"/>
<path d="M115.257 430.793C115.062 430.793 114.904 430.951 114.904 431.145C114.904 431.321 115.032 431.466 115.2 431.493L115.257 431.498H163.448C163.643 431.498 163.801 431.34 163.801 431.145C163.801 430.97 163.673 430.825 163.505 430.797L163.448 430.793H115.257Z" fill="#253368"/>
<path d="M148.338 425.233C148.163 425.241 148.023 425.376 148.004 425.544L148.002 425.602L148.267 431.162C148.277 431.357 148.442 431.507 148.636 431.498C148.812 431.49 148.951 431.355 148.97 431.186L148.972 431.129L148.707 425.568C148.697 425.374 148.532 425.223 148.338 425.233Z" fill="#253368"/>
<path fill-rule="evenodd" clip-rule="evenodd" d="M191.078 451.507L136.827 439.741L192.006 426.396L236.433 440.63L191.078 451.507Z" fill="#CCD7EE"/>
<path fill-rule="evenodd" clip-rule="evenodd" d="M193.357 447.808L153.957 439.263L193.099 429.443L226.298 439.908L193.357 447.808Z" fill="#4E5C93"/>
<path fill-rule="evenodd" clip-rule="evenodd" d="M136.7 442.569L136.815 439.76L192.207 451.317L191.092 454.26L136.7 442.569Z" fill="#253368"/>
<path d="M200.253 432.215L168.316 441.913C168.192 441.951 168.122 442.083 168.16 442.207C168.193 442.315 168.297 442.383 168.406 442.373L168.453 442.363L200.39 432.665C200.514 432.627 200.584 432.496 200.547 432.372C200.514 432.263 200.409 432.196 200.3 432.206L200.253 432.215Z" fill="#CCD7EE"/>
<path d="M196.201 430.312L160.527 440.496C160.402 440.532 160.329 440.662 160.365 440.787C160.396 440.896 160.5 440.965 160.609 440.957L160.656 440.948L196.33 430.764C196.455 430.729 196.527 430.599 196.492 430.474C196.46 430.365 196.357 430.296 196.248 430.304L196.201 430.312Z" fill="#CCD7EE"/>
<path d="M200.562 435.09L173.719 443.651C173.595 443.69 173.527 443.822 173.566 443.946C173.601 444.054 173.706 444.12 173.815 444.108L173.862 444.099L200.705 435.538C200.829 435.498 200.897 435.366 200.858 435.242C200.823 435.134 200.718 435.068 200.609 435.08L200.562 435.09Z" fill="#CCD7EE"/>
<path d="M207.72 436.216L180.877 444.777C180.753 444.816 180.685 444.948 180.724 445.072C180.759 445.18 180.864 445.246 180.973 445.234L181.02 445.225L207.863 436.664C207.987 436.624 208.055 436.492 208.016 436.368C207.981 436.26 207.876 436.194 207.767 436.206L207.72 436.216Z" fill="#CCD7EE"/>
<path d="M214.304 437.724L187.461 446.285C187.337 446.324 187.269 446.456 187.308 446.58C187.343 446.688 187.448 446.754 187.557 446.742L187.603 446.733L214.447 438.172C214.571 438.132 214.639 438 214.6 437.876C214.565 437.768 214.46 437.702 214.351 437.714L214.304 437.724Z" fill="#CCD7EE"/>
<path d="M160.557 437.908C160.429 437.885 160.307 437.97 160.284 438.097C160.263 438.209 160.326 438.317 160.427 438.357L160.473 438.371L194.257 444.495C194.385 444.518 194.507 444.433 194.53 444.305C194.551 444.193 194.488 444.086 194.387 444.045L194.341 444.032L160.557 437.908Z" fill="#CCD7EE"/>
<path d="M168.254 435.674C168.126 435.651 168.004 435.736 167.981 435.864C167.96 435.976 168.023 436.083 168.124 436.124L168.17 436.137L201.955 442.261C202.083 442.284 202.205 442.2 202.228 442.072C202.248 441.96 202.186 441.852 202.085 441.812L202.039 441.798L168.254 435.674Z" fill="#CCD7EE"/>
<path d="M177.71 434.429C177.582 434.406 177.459 434.491 177.436 434.618C177.416 434.73 177.478 434.838 177.58 434.879L177.626 434.892L211.41 441.016C211.537 441.039 211.66 440.954 211.683 440.826C211.703 440.715 211.641 440.607 211.539 440.566L211.494 440.553L177.71 434.429Z" fill="#CCD7EE"/>
<path d="M184.303 430.079C184.175 430.056 184.053 430.141 184.029 430.269C184.009 430.38 184.072 430.488 184.173 430.529L184.219 430.542L218.004 436.666C218.132 436.689 218.254 436.604 218.277 436.476C218.297 436.365 218.235 436.257 218.133 436.216L218.088 436.203L184.303 430.079Z" fill="#CCD7EE"/>
<path fill-rule="evenodd" clip-rule="evenodd" d="M191.136 454.265L193.584 454.617L236.541 443.748L257.639 373.364L211.665 379.865L191.136 454.265Z" fill="#253368"/>
<path fill-rule="evenodd" clip-rule="evenodd" d="M193.671 454.627L238.97 443.184C239.384 443.081 239.713 442.766 239.836 442.357L260.189 374.721C260.446 373.871 259.733 373.043 258.855 373.168L215.241 379.395C214.764 379.464 214.371 379.809 214.242 380.274L193.671 454.627Z" fill="#4E5C93"/>
<path fill-rule="evenodd" clip-rule="evenodd" d="M128.053 408.63C128.053 408.63 126.571 421.711 114.611 420.152C102.415 418.562 104.432 405.384 104.432 405.384C104.432 405.384 104.27 397.12 105.708 386.093C106.832 377.476 108.453 366.231 109.697 360.785C111.04 354.909 116.711 351.285 122.313 352.014C130.826 353.125 133.363 360.165 132.858 366.141C132.367 371.951 131.586 381.514 130.903 387.907C129.589 400.198 128.053 408.63 128.053 408.63Z" fill="#ADC6FF"/>
<path fill-rule="evenodd" clip-rule="evenodd" d="M162.648 425.441C164.224 431.322 177.323 429.326 177.323 429.326L183.743 434.553C184.76 435.255 185.197 434.57 185.75 434.696C187.242 435.036 187.598 433.469 187.598 433.469C188.169 433.341 188.907 433.924 189.453 432.558C189.453 432.558 190.515 432.721 190.878 431.47C191.013 431.004 188.963 424.706 187.74 421.022C187.202 419.403 185.803 418.228 184.116 417.974L168.44 415.613C168.44 415.613 160.53 417.528 162.648 425.441Z" fill="#C99382"/>
<path d="M176.36 425.219C176.181 425.143 175.973 425.226 175.897 425.405C175.828 425.566 175.889 425.75 176.032 425.841L176.083 425.868L180.713 427.846L185.336 434.211C185.438 434.351 185.624 434.394 185.774 434.322L185.829 434.289C185.969 434.187 186.012 434.002 185.94 433.851L185.907 433.797L181.226 427.353C181.201 427.318 181.17 427.289 181.135 427.266L181.079 427.236L176.36 425.219Z" fill="#9B6160"/>
<path d="M179.509 423.279C179.339 423.183 179.124 423.243 179.028 423.413C178.943 423.564 178.981 423.75 179.11 423.857L179.162 423.893L183.413 426.288L187.181 432.878C187.267 433.028 187.447 433.091 187.604 433.035L187.662 433.009C187.812 432.923 187.875 432.743 187.82 432.585L187.793 432.527L183.977 425.853C183.956 425.816 183.928 425.784 183.896 425.757L183.844 425.721L179.509 423.279Z" fill="#9B6160"/>
<path d="M182.558 421.482C182.405 421.361 182.184 421.387 182.063 421.54C181.955 421.676 181.964 421.866 182.074 421.992L182.121 422.036L184.983 424.299L188.422 431.372C188.499 431.53 188.677 431.604 188.84 431.556L188.893 431.535C189.051 431.458 189.126 431.28 189.077 431.117L189.056 431.064L185.582 423.918C185.567 423.886 185.547 423.857 185.523 423.831L185.484 423.796L182.558 421.482Z" fill="#9B6160"/>
<path fill-rule="evenodd" clip-rule="evenodd" d="M121.074 398.014C121.074 398.014 107.885 395.24 105.206 406.187C102.443 417.476 114.973 420.723 114.973 420.723C114.973 420.723 123.846 422.791 134.77 425.387C141.441 426.971 148.841 428.574 154.38 428.967C160.378 429.393 161.734 426.325 163.073 420.852C164.665 414.352 164.661 411.503 159.108 409.276C153.814 407.152 146.371 405.239 140.671 403.495C129.803 400.171 121.074 398.014 121.074 398.014Z" fill="#ADC6FF"/>
<path fill-rule="evenodd" clip-rule="evenodd" d="M165.837 428.081L168.935 415.423L160.605 412.42L157.062 426.899L165.837 428.081Z" fill="#ADC6FF"/>
<path d="M132.771 373.328C132.573 373.307 132.395 373.45 132.374 373.649L132.268 374.563C132.026 376.542 131.551 379.871 130.867 384.447L128.487 400.162C128.461 400.341 128.573 400.512 128.748 400.56C131.982 401.453 135.286 402.403 138.611 403.407L140.884 404.095L148.412 406.294L149.637 406.657C153.422 407.786 156.14 408.686 158.444 409.61C161.152 410.697 162.47 411.911 162.912 413.657C162.937 413.754 163 413.835 163.086 413.883L163.14 413.908L167.978 415.652L165.036 427.679L159.78 426.972C159.69 426.96 159.601 426.982 159.528 427.032L159.476 427.075C158.26 428.291 156.522 428.796 153.877 428.607C149.209 428.276 143.212 427.136 134.821 425.154L127.853 423.503L114.526 420.372C114.332 420.327 114.138 420.448 114.093 420.642C114.048 420.836 114.168 421.029 114.362 421.075L120.163 422.433C123.014 423.102 125.968 423.798 128.971 424.508L135.149 425.972C143.319 427.892 149.2 428.999 153.825 429.327C156.487 429.516 158.36 429.033 159.721 427.834L159.857 427.71L165.26 428.438C165.423 428.46 165.576 428.369 165.639 428.223L165.659 428.166L168.755 415.509C168.794 415.35 168.721 415.187 168.582 415.109L168.527 415.084L163.56 413.292L163.518 413.152C162.951 411.379 161.54 410.117 158.951 409.038L158.713 408.941L158.224 408.747C156.161 407.943 153.76 407.146 150.595 406.191L147.844 405.379C146.271 404.923 142.705 403.885 140.923 403.354L140.248 403.151C136.912 402.13 133.591 401.162 130.332 400.252L129.247 399.95L131.529 384.897C132.364 379.321 132.897 375.542 133.091 373.725C133.112 373.527 132.969 373.349 132.771 373.328Z" fill="#597EF7"/>
<path fill-rule="evenodd" clip-rule="evenodd" d="M987.137 418.513C1008.53 408.395 1021.28 434.932 1010.52 449.708C997.392 467.739 990.666 488.485 986.921 494.736C983.762 500.009 975.108 512.865 964.687 506.94C955.096 501.486 960.323 480.084 960.323 480.084C960.323 480.084 960.747 430.996 987.137 418.513Z" fill="#5B8C00"/>
<path fill-rule="evenodd" clip-rule="evenodd" d="M922.793 502.819C915.52 493.007 912.865 478.926 920.982 475.316C928.765 471.854 941.657 480.378 947.629 496.782C953.6 513.186 957.045 524.98 951.204 527.03C941.621 530.395 932.399 515.778 922.793 502.819Z" fill="#5B8C00"/>
<path fill-rule="evenodd" clip-rule="evenodd" d="M999.251 503.564C991.025 513.204 979.155 532.595 971.719 525.803C967.212 521.688 973.237 502.196 989.729 491.59C1003.76 482.569 1007.48 493.924 999.251 503.564Z" fill="#7CB305"/>
<path fill-rule="evenodd" clip-rule="evenodd" d="M920.538 436.67C923.666 434.566 927.602 434.085 931.192 435.235C936.203 436.84 943.807 441.619 951.334 455.336C961.159 473.244 966.275 492.877 965.263 505.314C964.602 513.446 954.583 516.953 948.978 511.023C946.404 508.299 943.68 504.101 941.015 497.733C930.29 472.104 920.263 456.044 919.067 454.431C915.877 450.128 913.596 441.341 920.538 436.67Z" fill="#7CB305"/>
<path fill-rule="evenodd" clip-rule="evenodd" d="M927.731 446.893C927.837 448.158 926.897 449.27 925.632 449.376C924.367 449.482 923.255 448.542 923.149 447.277C923.043 446.012 923.982 444.9 925.248 444.794C926.513 444.687 927.625 445.627 927.731 446.893Z" fill="white"/>
<path fill-rule="evenodd" clip-rule="evenodd" d="M947.261 456.709C947.367 457.974 946.427 459.086 945.162 459.193C943.896 459.299 942.784 458.359 942.678 457.094C942.572 455.828 943.512 454.717 944.777 454.61C946.043 454.504 947.154 455.444 947.261 456.709Z" fill="white"/>
<path fill-rule="evenodd" clip-rule="evenodd" d="M943.987 482.847C944.109 484.296 943.033 485.569 941.584 485.69C940.134 485.812 938.861 484.736 938.74 483.287C938.618 481.838 939.694 480.564 941.144 480.443C942.592 480.321 943.866 481.397 943.987 482.847Z" fill="white"/>
<path fill-rule="evenodd" clip-rule="evenodd" d="M1003.97 443.785C1003.97 445.842 1002.31 447.509 1000.25 447.509C998.192 447.509 996.525 445.842 996.525 443.785C996.525 441.729 998.192 440.062 1000.25 440.062C1002.31 440.062 1003.97 441.729 1003.97 443.785Z" fill="white"/>
<path fill-rule="evenodd" clip-rule="evenodd" d="M973.995 455.157C973.995 457.213 972.328 458.88 970.271 458.88C968.215 458.88 966.548 457.213 966.548 455.157C966.548 453.1 968.215 451.433 970.271 451.433C972.328 451.433 973.995 453.1 973.995 455.157Z" fill="white"/>
<path fill-rule="evenodd" clip-rule="evenodd" d="M983.704 480.433C983.704 481.293 983.007 481.99 982.147 481.99C981.288 481.99 980.591 481.293 980.591 480.433C980.591 479.574 981.288 478.877 982.147 478.877C983.007 478.877 983.704 479.574 983.704 480.433Z" fill="white"/>
<path fill-rule="evenodd" clip-rule="evenodd" d="M994.917 500.338C994.917 501.608 993.887 502.637 992.618 502.637C991.348 502.637 990.318 501.608 990.318 500.338C990.318 499.068 991.348 498.039 992.618 498.039C993.887 498.039 994.917 499.068 994.917 500.338Z" fill="white"/>
<path d="M941.213 505.438C941.427 505.233 941.767 505.241 941.971 505.456L942.069 505.562L942.143 505.644C942.279 505.795 942.435 505.975 942.61 506.184C943.108 506.778 943.663 507.488 944.258 508.313C945.957 510.665 947.653 513.47 949.236 516.725C953.751 526.013 956.46 537.046 956.46 549.782C956.46 550.078 956.22 550.318 955.924 550.318C955.628 550.318 955.388 550.078 955.388 549.782C955.388 537.214 952.718 526.34 948.271 517.194C946.717 513.996 945.052 511.244 943.389 508.941C942.843 508.185 942.334 507.529 941.874 506.975L941.788 506.873C941.658 506.717 941.539 506.579 941.433 506.459L941.298 506.308C941.249 506.253 941.214 506.216 941.195 506.196C940.991 505.981 940.999 505.642 941.213 505.438Z" fill="#253368"/>
<path d="M981.718 509.19C981.895 508.953 982.231 508.904 982.468 509.081C982.705 509.259 982.754 509.595 982.577 509.832C980.624 512.447 978.822 515.259 977.165 518.24C973.662 524.541 970.953 531.297 968.943 538.053C968.239 540.417 967.673 542.613 967.233 544.582L967.144 544.985C967.039 545.467 966.948 545.906 966.87 546.3L966.82 546.557L966.731 547.044C966.682 547.336 966.406 547.532 966.114 547.483C965.822 547.434 965.625 547.158 965.674 546.866L965.705 546.693C965.73 546.554 965.76 546.39 965.797 546.202L965.886 545.755C965.972 545.33 966.072 544.86 966.187 544.347L966.284 543.917C966.715 542.037 967.255 539.965 967.915 537.747C969.946 530.921 972.683 524.094 976.228 517.719C977.908 514.697 979.735 511.845 981.718 509.19Z" fill="#253368"/>
<path d="M991.087 442.301C991.292 442.498 991.307 442.818 991.126 443.033L991.103 443.059C991.092 443.07 991.07 443.094 991.035 443.131L990.903 443.275L990.827 443.36C990.596 443.617 990.328 443.927 990.025 444.289C989.157 445.328 988.188 446.578 987.144 448.039C984.156 452.222 981.167 457.26 978.375 463.158C973.728 472.979 970.108 484.179 967.914 496.771C965.25 512.06 964.809 528.763 966.989 546.891C967.025 547.185 966.815 547.452 966.521 547.487C966.227 547.522 965.96 547.313 965.925 547.019C963.732 528.787 964.176 511.979 966.858 496.586C969.068 483.898 972.718 472.606 977.406 462.7C980.226 456.742 983.248 451.65 986.272 447.416L986.506 447.09C987.438 445.799 988.31 444.676 989.104 443.72L989.202 443.602C989.487 443.261 989.743 442.964 989.968 442.712L990.029 442.644C990.099 442.566 990.162 442.497 990.217 442.437L990.329 442.317C990.534 442.103 990.873 442.096 991.087 442.301Z" fill="#253368"/>
<path d="M944.68 474.094C944.933 473.941 945.263 474.022 945.416 474.275L945.47 474.365C945.513 474.438 945.563 474.525 945.621 474.625L945.705 474.772C945.849 475.025 946.011 475.315 946.189 475.643L946.336 475.916C946.881 476.931 947.479 478.106 948.117 479.436L948.204 479.618C950.285 483.979 952.366 489.078 954.307 494.872C959.741 511.095 963.047 529.508 963.171 549.779C963.173 550.075 962.934 550.316 962.638 550.318C962.342 550.32 962.101 550.082 962.099 549.785C961.976 529.633 958.69 511.332 953.29 495.212C951.398 489.565 949.374 484.586 947.349 480.317L947.237 480.08C946.544 478.63 945.9 477.364 945.319 476.288L945.144 475.966C944.976 475.66 944.825 475.391 944.692 475.159L944.628 475.05L944.499 474.831C944.346 474.578 944.427 474.248 944.68 474.094Z" fill="#253368"/>
<path fill-rule="evenodd" clip-rule="evenodd" d="M985.943 576.376H939.6C937.095 576.376 935.045 574.326 935.045 571.821V538.012C935.045 535.507 937.095 533.458 939.6 533.458H985.943C988.447 533.458 990.497 535.507 990.497 538.012V571.821C990.497 574.326 988.447 576.376 985.943 576.376Z" fill="#253368"/>
<path fill-rule="evenodd" clip-rule="evenodd" d="M830.057 364.993C836.841 364.778 842.166 359.113 841.951 352.34L840.719 313.546C840.504 306.772 834.829 301.456 828.045 301.671C821.26 301.886 815.935 307.551 816.15 314.323L817.383 353.118C817.598 359.891 823.273 365.208 830.057 364.993Z" fill="#E4EBF7"/>
<path fill-rule="evenodd" clip-rule="evenodd" d="M852.327 520.651C856.752 521.07 859.855 525.197 859.013 529.553C857.572 537.001 855.503 548.48 854.178 559.242C852.991 568.887 854.098 575.603 852.062 578.024C849.867 580.633 845.627 578.133 841.929 581.442C838.23 584.752 835.557 587.301 826.079 584.798C814.995 581.871 825.033 579.305 830.446 574.795C840.002 566.832 841.289 562.921 842.058 556.768C843.637 544.167 844.023 534.414 844.087 528.042C844.131 523.647 847.944 520.236 852.327 520.651Z" fill="#FFC999"/>
<path fill-rule="evenodd" clip-rule="evenodd" d="M853.493 568.649C853.493 568.649 851.822 570.66 846.167 574.801C841.706 578.066 838.814 580.035 836.514 578.913C832.315 576.863 829.06 575.775 829.06 575.775C829.06 575.775 824.98 577.621 821.878 579.769C818.777 581.917 818.962 585.692 825.518 587.044C832.075 588.394 835.892 588.187 842.385 583.702C848.879 579.216 851.507 581.325 852.609 578.633C854.331 574.424 853.493 568.649 853.493 568.649Z" fill="#253368"/>
<path fill-rule="evenodd" clip-rule="evenodd" d="M874.239 476.418L887.96 429.655C890.674 419.947 884.179 410.082 874.178 408.718C865.521 407.536 857.423 413.236 855.629 421.773L845.544 469.743C845.544 469.743 841.921 483.252 856.267 486.453C870.219 489.566 874.239 476.418 874.239 476.418Z" fill="#253368"/>
<path fill-rule="evenodd" clip-rule="evenodd" d="M874.528 469.21L859.263 554.551C858.899 556.591 857.101 558.063 855.026 558.023L840.376 557.729C837.909 557.679 836.01 555.536 836.264 553.084L845.083 467.96C845.083 467.96 846.037 453.434 861.567 455.067C876.053 456.59 874.528 469.21 874.528 469.21Z" fill="#253368"/>
<path fill-rule="evenodd" clip-rule="evenodd" d="M859.376 558.655L835.36 558.175C834.851 558.164 834.457 557.728 834.499 557.222L835.341 546.953C835.379 546.489 835.771 546.135 836.238 546.144L861.76 546.655C862.319 546.666 862.727 547.187 862.602 547.731L860.254 557.971C860.161 558.378 859.795 558.663 859.376 558.655Z" fill="#4E5C93"/>
<path fill-rule="evenodd" clip-rule="evenodd" d="M861.29 509.22C865.192 507.095 870.077 508.782 871.82 512.863C874.801 519.841 879.521 530.51 884.456 540.169C888.879 548.825 893.561 553.773 893.231 556.916C892.873 560.305 887.958 560.601 886.748 565.411C885.538 570.22 884.752 573.826 875.494 577.047C864.667 580.813 871.548 573.079 873.506 566.318C876.962 554.379 875.836 550.418 873.026 544.889C867.269 533.565 862.123 525.267 858.604 519.95C856.176 516.282 857.425 511.325 861.29 509.22Z" fill="#FFC999"/>
<path fill-rule="evenodd" clip-rule="evenodd" d="M889.161 548.348C889.161 548.348 888.905 550.948 886.538 557.538C884.671 562.738 883.377 565.985 880.842 566.34C876.214 566.986 872.906 567.904 872.906 567.904C872.906 567.904 870.561 571.713 869.194 575.226C867.828 578.738 870.097 581.764 876.288 579.221C882.48 576.677 885.526 574.374 888.393 567.028C891.26 559.683 894.621 559.963 894.025 557.115C893.093 552.665 889.161 548.348 889.161 548.348Z" fill="#253368"/>
<path fill-rule="evenodd" clip-rule="evenodd" d="M828.663 465.357L835.288 417.079C836.785 407.113 846.752 400.76 856.438 403.596C864.822 406.05 869.879 414.557 868.022 423.08L857.584 470.975C857.584 470.975 855.36 484.782 840.956 481.849C826.948 478.997 828.663 465.357 828.663 465.357Z" fill="#253368"/>
<path fill-rule="evenodd" clip-rule="evenodd" d="M829.464 472.5L866.819 543.493C867.712 545.191 869.824 545.969 871.799 545.328L885.733 540.807C888.081 540.046 889.325 537.598 888.428 535.506L857.297 462.829C857.297 462.829 852.512 450.267 838.092 456.228C824.641 461.789 829.464 472.5 829.464 472.5Z" fill="#253368"/>
<path fill-rule="evenodd" clip-rule="evenodd" d="M868.513 547.796L890.749 538.725C891.22 538.533 891.431 537.983 891.21 537.527L886.724 528.247C886.522 527.827 886.028 527.639 885.597 527.814L861.966 537.455C861.448 537.667 861.256 538.299 861.569 538.762L867.448 547.473C867.682 547.819 868.127 547.955 868.513 547.796Z" fill="#4E5C93"/>
<path fill-rule="evenodd" clip-rule="evenodd" d="M849.708 446.609L828.609 426.595C826.813 425.249 825.869 423.05 826.13 420.822L824.372 395.917L884.658 396.87L884.965 423.234C884.984 424.874 884.362 426.45 883.236 427.643C879.78 431.3 871.117 438.57 856.048 446.397C854.003 447.459 851.495 448.061 849.708 446.609Z" fill="#253368"/>
<path d="M825.851 403.231C825.664 403.227 825.51 403.375 825.506 403.562C825.502 403.73 825.622 403.871 825.782 403.901L825.837 403.906L880.45 405.025C880.637 405.029 880.791 404.881 880.795 404.695C880.799 404.527 880.679 404.385 880.519 404.356L880.464 404.35L825.851 403.231Z" fill="#253368"/>
<path d="M857.282 396.437C857.114 396.434 856.972 396.553 856.942 396.713L856.937 396.768L856.784 404.202C856.78 404.389 856.929 404.543 857.115 404.547C857.283 404.55 857.425 404.431 857.455 404.271L857.46 404.216L857.613 396.782C857.617 396.595 857.468 396.441 857.282 396.437Z" fill="#253368"/>
<path fill-rule="evenodd" clip-rule="evenodd" d="M874.834 261.795C874.834 261.795 878.104 243.757 855.184 243.6C842.364 244.371 841.697 265.555 841.697 265.555C841.697 265.555 840.605 269.958 842.069 274.608C843.709 279.817 848.501 281.753 854.888 282.621C866.823 282.741 871.923 276.417 871.923 276.417C871.923 276.417 880.101 277.403 879.883 267.064C879.615 257.471 874.834 261.795 874.834 261.795Z" fill="#FFC999"/>
<path fill-rule="evenodd" clip-rule="evenodd" d="M873.503 249.187C873.195 253.857 876.738 257.892 881.416 258.198C886.094 258.504 890.134 254.968 890.442 250.298C890.75 245.629 887.206 241.594 882.528 241.287C877.852 240.981 873.81 244.517 873.503 249.187Z" fill="#253368"/>
<path fill-rule="evenodd" clip-rule="evenodd" d="M841.765 266.218C841.765 266.218 839.3 261.221 838.008 255.371C836.716 249.521 848.415 238.757 849.96 237.929C851.505 237.101 852.308 236.223 862.266 240.596C892.473 243.792 883.465 271.023 883.465 271.023C883.465 271.023 886.824 273.802 884.332 280.52C881.47 287.213 871.974 286.83 871.974 286.83L872.349 276.09C872.349 276.09 875.538 276.541 878.193 272.996C880.847 269.451 879.06 264.813 877.6 264.345C876.345 263.27 873.009 263.548 872.748 267.505C872.616 269.497 869.112 264.783 868.125 257.1C857.686 254.37 855.521 246.849 855.521 246.849C855.521 246.849 854.687 253.861 856.161 256.934C850.706 254.902 847.933 251.745 849.068 248.657C842.578 251.021 841.765 266.218 841.765 266.218Z" fill="#253368"/>
<path fill-rule="evenodd" clip-rule="evenodd" d="M871.887 288.149L872.671 272.15L851.768 271.263C851.768 271.263 851.13 282.18 850.425 286.579C836.347 293.147 866.7 300.769 874.356 292.825C876.72 290.371 871.887 288.149 871.887 288.149Z" fill="#FFC999"/>
<path fill-rule="evenodd" clip-rule="evenodd" d="M853.945 263.568C854.07 267.644 857.036 270.861 860.573 270.753C864.107 270.646 866.872 267.254 866.749 263.179C866.624 259.103 863.657 255.885 860.121 255.993C856.586 256.101 853.82 259.492 853.945 263.568Z" fill="white"/>
<path d="M860.108 255.553C863.902 255.437 867.057 258.858 867.19 263.165C867.32 267.471 864.379 271.078 860.586 271.193C856.791 271.309 853.636 267.888 853.504 263.581C853.373 259.275 856.314 255.668 860.108 255.553ZM860.134 256.433C856.858 256.533 854.268 259.708 854.385 263.554C854.504 267.401 857.282 270.413 860.559 270.313C863.835 270.214 866.425 267.037 866.308 263.192C866.192 259.407 863.499 256.429 860.29 256.431L860.134 256.433Z" fill="#4E5C93"/>
<path fill-rule="evenodd" clip-rule="evenodd" d="M839.774 262.092C839.898 266.168 842.682 269.391 845.993 269.29C849.303 269.189 851.885 265.803 851.762 261.727C851.637 257.651 848.853 254.428 845.542 254.529C842.232 254.63 839.649 258.015 839.774 262.092Z" fill="white"/>
<path d="M845.529 254.089C849.105 253.98 852.07 257.412 852.203 261.714C852.333 266.015 849.582 269.621 846.006 269.729C842.43 269.839 839.465 266.406 839.333 262.105C839.201 257.804 841.952 254.198 845.529 254.089ZM845.556 254.969C842.511 255.061 840.097 258.227 840.215 262.078C840.332 265.93 842.935 268.943 845.979 268.85C849.023 268.757 851.438 265.592 851.321 261.74C851.205 257.951 848.683 254.974 845.703 254.967L845.556 254.969Z" fill="#4E5C93"/>
<path d="M852.771 264.462C852.66 264.344 852.482 264.326 852.35 264.411L852.303 264.448L849.828 266.769C849.707 266.883 849.691 267.065 849.782 267.197L849.821 267.243L852.191 269.61C852.32 269.739 852.53 269.739 852.659 269.61C852.773 269.495 852.786 269.317 852.697 269.189L852.659 269.143L850.529 267.017L852.756 264.929C852.875 264.818 852.893 264.641 852.808 264.509L852.771 264.462Z" fill="#DD936F"/>
<path d="M857.427 271.148C857.377 270.91 857.143 270.757 856.905 270.807L856.667 270.853L856.578 270.87C856.316 270.917 856.027 270.965 855.721 271.009C855.082 271.102 854.454 271.168 853.869 271.196C853.009 271.238 852.304 271.194 851.823 271.054C851.589 270.986 851.345 271.12 851.276 271.353C851.208 271.586 851.342 271.831 851.576 271.899C852.171 272.073 852.962 272.122 853.911 272.076C854.528 272.046 855.183 271.977 855.848 271.88C856.006 271.857 856.161 271.834 856.309 271.809L856.911 271.703C856.987 271.689 857.045 271.677 857.085 271.669C857.323 271.619 857.476 271.386 857.427 271.148Z" fill="#F5222D"/>
<path fill-rule="evenodd" clip-rule="evenodd" d="M853.975 261.637C853.975 261.637 852.909 260.822 851.868 261.499Z" fill="white"/>
<path d="M853.975 261.637C853.975 261.637 852.909 260.822 851.868 261.499" stroke="#4E5C93" stroke-width="1.5" stroke-linecap="round" stroke-linejoin="round"/>
<path d="M861.959 281.546C861.076 281.697 860.071 281.798 858.966 281.855C857.152 281.948 855.206 281.917 853.33 281.807L852.681 281.766L851.916 281.706C851.735 281.689 851.573 281.823 851.556 282.004C851.539 282.186 851.673 282.347 851.855 282.364L852.154 282.389L852.635 282.425C852.84 282.439 853.06 282.453 853.292 282.467C855.189 282.577 857.158 282.609 859 282.514C860.129 282.457 861.16 282.353 862.071 282.197C862.251 282.166 862.372 281.995 862.341 281.815C862.313 281.654 862.172 281.54 862.013 281.541L861.959 281.546Z" fill="#DD936F"/>
<path fill-rule="evenodd" clip-rule="evenodd" d="M857.633 262.759C857.567 263.761 857.958 264.602 858.504 264.637C859.052 264.674 859.549 263.891 859.615 262.889C859.681 261.887 859.291 261.046 858.743 261.01C858.197 260.974 857.698 261.757 857.633 262.759Z" fill="#253368"/>
<path fill-rule="evenodd" clip-rule="evenodd" d="M844.739 262.079C844.674 263.081 845.063 263.922 845.61 263.957C846.158 263.993 846.655 263.211 846.721 262.209C846.786 261.207 846.397 260.366 845.849 260.33C845.302 260.294 844.805 261.077 844.739 262.079Z" fill="#253368"/>
<path d="M866.749 263.178L872.502 263.68" stroke="#4E5C93" stroke-width="1.5" stroke-linecap="round" stroke-linejoin="round"/>
<path fill-rule="evenodd" clip-rule="evenodd" d="M846.638 290.842L847.634 290.803C846.995 296.79 869.581 297.298 872.956 290.308C873.042 290.13 873.109 289.963 873.165 289.803L875.914 289.696L878.761 393.772C878.761 393.772 859.225 402.476 840.241 395.72C830.684 312.744 846.638 290.842 846.638 290.842Z" fill="#597EF7"/>
<path d="M870.717 298.332C870.638 298.163 870.437 298.09 870.268 298.169L870.166 298.214L870.056 298.261C869.878 298.337 869.669 298.422 869.43 298.513C868.746 298.775 867.963 299.037 867.096 299.281C861.793 300.777 856.195 300.939 850.966 298.91C850.62 298.776 850.277 298.632 849.937 298.479C849.767 298.402 849.567 298.478 849.49 298.647C849.413 298.817 849.489 299.017 849.659 299.094C850.01 299.252 850.364 299.401 850.721 299.539C856.107 301.63 861.848 301.463 867.28 299.931C868.167 299.681 868.969 299.412 869.672 299.144L869.954 299.034C870.043 298.998 870.127 298.964 870.206 298.931L870.553 298.781C870.722 298.702 870.796 298.501 870.717 298.332Z" fill="#597EF7"/>
<path fill-rule="evenodd" clip-rule="evenodd" d="M850.621 288.087C850.621 288.087 845.077 301.371 844.613 353.092C844.245 394.286 846.241 466.184 846.241 466.184C846.241 466.184 828.284 464.84 824.641 458.004C820.884 450.957 820.782 398.717 821.021 372.373C821.454 324.397 819.868 313.544 823.753 302.808C828.23 300.225 835.316 296.426 842.239 292.657C843.92 291.741 846.843 289.279 847.911 288.689C850.815 287.086 850.621 288.087 850.621 288.087Z" fill="#E4EBF7"/>
<path d="M824.716 312.755C824.475 312.723 824.253 312.892 824.221 313.133L824.134 313.814L823.951 315.32C823.889 315.844 823.824 316.408 823.756 317.011L823.625 318.192C823.321 320.99 823.019 324.081 822.734 327.413C821.673 339.849 821.101 352.63 821.28 364.91C821.283 365.153 821.484 365.348 821.727 365.344C821.971 365.341 822.165 365.141 822.162 364.898C821.991 353.14 822.509 340.916 823.488 328.978L823.613 327.488C823.917 323.925 824.241 320.64 824.567 317.694L824.751 316.069C824.802 315.626 824.852 315.208 824.899 314.817L825.095 313.249C825.127 313.008 824.958 312.787 824.716 312.755Z" fill="#A3B5D6"/>
<path fill-rule="evenodd" clip-rule="evenodd" d="M899.097 297.872C892.015 294.676 884.302 293.484 879.81 291.078C876.933 289.537 874.603 287.428 872.351 286.739C858.964 351.538 864.397 432.083 867.843 469.159C884.811 470.974 901.362 458.005 901.362 458.005C901.362 458.005 900.142 398.61 897.755 364.903C895.771 336.866 900.908 298.689 899.097 297.872Z" fill="#E4EBF7"/>
<path d="M872.779 286.144C872.575 286.011 872.302 286.067 872.168 286.27C872.047 286.455 872.083 286.697 872.243 286.84L872.295 286.88L879.168 291.388L879.186 291.723L879.192 291.869C879.297 294.297 879.223 297.615 878.835 301.728C878.288 307.536 877.198 313.91 875.443 320.764L875.252 321.5C874.928 322.739 874.609 323.947 874.266 325.238L871.777 334.513C870.578 339.007 869.799 342.092 869.112 345.15C867.685 351.498 866.742 357.471 866.018 365.095C865.995 365.337 866.173 365.552 866.415 365.575C866.657 365.597 866.873 365.42 866.896 365.178C867.594 357.828 868.495 352.026 869.841 345.934L870.106 344.753C870.669 342.29 871.305 339.749 872.186 336.408L873.075 333.074L874.885 326.338C875.32 324.707 875.709 323.238 876.105 321.723C877.985 314.541 879.142 307.872 879.713 301.81C880.105 297.657 880.18 294.299 880.073 291.831L880.045 291.292C880.039 291.199 880.035 291.137 880.032 291.104C880.022 290.991 879.97 290.888 879.888 290.813L879.835 290.772L872.779 286.144Z" fill="#A3B5D6"/>
<path d="M850.713 287.036C850.595 286.849 850.359 286.781 850.163 286.867L850.105 286.898L841.507 292.304C841.403 292.369 841.33 292.476 841.308 292.597L841.262 292.869L841.176 293.439C841.159 293.557 841.142 293.682 841.124 293.814L841.097 294.018C840.94 295.206 840.784 296.658 840.637 298.384L840.564 299.288C839.389 314.201 839.762 336.23 842.735 366.315C842.759 366.557 842.975 366.733 843.217 366.71C843.46 366.686 843.637 366.47 843.613 366.228L843.434 364.4C840.572 334.693 840.283 313.026 841.516 298.458L841.579 297.741C841.705 296.34 841.838 295.139 841.971 294.133L842.074 293.396L842.133 293.009L842.144 292.943L850.575 287.643C850.762 287.525 850.83 287.29 850.744 287.094L850.713 287.036Z" fill="#A3B5D6"/>
<path d="M898.535 386.874L883.398 389.562C883.201 389.597 883.055 389.76 883.036 389.954L883.034 390.013L884.273 421.543C884.389 424.473 887.02 426.645 889.906 426.233L890.056 426.21L900.624 424.379C900.864 424.338 901.025 424.11 900.984 423.87C900.945 423.651 900.75 423.498 900.533 423.506L900.474 423.512L889.905 425.342C887.531 425.754 885.334 424.023 885.162 421.644L885.155 421.508L883.931 390.361L898.69 387.741C898.91 387.701 899.062 387.506 899.053 387.29L899.047 387.23C899.008 387.011 898.812 386.858 898.595 386.867L898.535 386.874Z" fill="#A3B5D6"/>
<path d="M824.077 388.102C823.843 388.032 823.598 388.165 823.528 388.397C823.464 388.611 823.57 388.835 823.768 388.924L823.824 388.945L831.344 391.193L832.111 424.524C832.13 425.335 831.332 425.903 830.579 425.645L830.499 425.614L823.18 422.496C822.956 422.401 822.697 422.505 822.601 422.729C822.513 422.934 822.594 423.168 822.78 423.279L822.834 423.306L830.153 426.424C831.486 426.991 832.957 426.03 832.992 424.606V424.503L832.217 390.854C832.213 390.684 832.113 390.534 831.962 390.464L831.903 390.442L824.077 388.102Z" fill="#A3B5D6"/>
<path fill-rule="evenodd" clip-rule="evenodd" d="M777.387 360.876L836.129 361.427C838.363 361.447 839.979 359.303 839.338 357.167L826.954 315.834C826.537 314.443 825.261 313.485 823.808 313.472L765.063 312.921C762.83 312.9 761.215 315.045 761.856 317.181L774.24 358.514C774.657 359.905 775.933 360.862 777.387 360.876Z" fill="#A3B5D6"/>
<path fill-rule="evenodd" clip-rule="evenodd" d="M774.904 360.876L833.647 361.427C835.88 361.447 837.496 359.304 836.856 357.167L824.47 315.834C824.053 314.443 822.778 313.485 821.325 313.472L762.58 312.921C760.348 312.9 758.732 315.045 759.372 317.181L771.758 358.514C772.174 359.905 773.45 360.862 774.904 360.876Z" fill="#253368"/>
<path fill-rule="evenodd" clip-rule="evenodd" d="M769.83 342.803C769.83 342.803 762.261 339.59 760.488 340.496C757.74 341.901 761.836 346.692 761.836 346.692C761.836 346.692 760.015 349.25 762.723 351.443C762.759 354.574 764.782 355.301 764.782 355.301C764.782 355.301 763.994 357.995 766.918 358.803C769.843 359.61 774.81 357.123 772.652 353.846C773.948 351.061 771.476 349.752 771.476 349.752C771.476 349.752 772.243 347.282 769.81 346.066C770.984 344.63 770.617 343.146 769.83 342.803Z" fill="#F4B784"/>
<path d="M763.143 344.687C762.965 344.659 762.797 344.781 762.769 344.959C762.744 345.12 762.84 345.271 762.99 345.32L763.042 345.333L769.759 346.388C769.937 346.416 770.105 346.295 770.133 346.116C770.158 345.956 770.062 345.805 769.912 345.755L769.86 345.743L763.143 344.687Z" fill="#DD936F"/>
<path d="M771.445 349.426L765.582 349.989C765.402 350.006 765.27 350.166 765.287 350.345C765.303 350.507 765.434 350.63 765.591 350.64L765.644 350.639L771.508 350.077C771.687 350.059 771.819 349.9 771.802 349.72C771.786 349.559 771.655 349.436 771.498 349.425L771.445 349.426Z" fill="#DD936F"/>
<path d="M772.59 353.526L767.137 354.579C766.96 354.613 766.844 354.784 766.878 354.961C766.909 355.121 767.051 355.231 767.208 355.226L767.261 355.22L772.715 354.167C772.892 354.133 773.008 353.962 772.974 353.784C772.943 353.625 772.801 353.515 772.643 353.52L772.59 353.526Z" fill="#DD936F"/>
<path fill-rule="evenodd" clip-rule="evenodd" d="M909.459 364.019C916.015 362.265 919.907 355.537 918.149 348.992L906.553 305.79C904.797 299.244 898.057 295.36 891.501 297.114C884.944 298.868 881.053 305.596 882.81 312.142L894.406 355.343C896.164 361.889 902.902 365.773 909.459 364.019Z" fill="#E4EBF7"/>
<path fill-rule="evenodd" clip-rule="evenodd" d="M841.809 365.712C841.809 365.712 852.043 364.664 853.64 358.822C855.087 353.531 849.974 351.454 849.974 351.454C849.974 351.454 845.219 348.586 839.113 347.663C835.09 347.055 827.323 346.673 826.718 348.74C825.928 351.434 834.744 351.355 834.791 353.397C834.839 355.493 833.018 355.644 828.993 357.347C826.476 358.411 823.576 358.472 821.616 359.78C817.783 362.338 826.59 368.562 841.809 365.712Z" fill="#FFC999"/>
<path d="M834.399 358.78C834.288 358.635 834.08 358.608 833.936 358.719L833.823 358.8L833.778 358.831C833.64 358.925 833.476 359.03 833.285 359.144C832.737 359.47 832.089 359.798 831.346 360.104C828.876 361.12 825.984 361.661 822.714 361.47C822.532 361.459 822.376 361.598 822.365 361.78C822.354 361.962 822.494 362.118 822.676 362.129C826.05 362.326 829.04 361.767 831.598 360.714C832.372 360.395 833.049 360.054 833.624 359.711C833.776 359.62 833.913 359.534 834.035 359.454L834.247 359.31C834.288 359.281 834.318 359.258 834.338 359.243C834.483 359.132 834.511 358.924 834.399 358.78Z" fill="#DD936F"/>
<path d="M836.378 362.025C836.298 361.861 836.1 361.793 835.936 361.873C835.715 361.98 835.491 362.082 835.264 362.18C833.547 362.92 831.709 363.376 829.839 363.6C828.655 363.742 827.595 363.777 826.731 363.747L826.519 363.738C826.388 363.732 826.298 363.726 826.253 363.722C826.071 363.706 825.911 363.84 825.894 364.021C825.878 364.203 826.012 364.363 826.194 364.38L826.408 364.394L826.487 364.398C829.144 364.526 832.393 364.136 835.526 362.786C835.762 362.685 835.995 362.578 836.225 362.466C836.39 362.387 836.458 362.189 836.378 362.025Z" fill="#DD936F"/>
<path d="M839.654 363.851C839.558 363.697 839.354 363.649 839.199 363.746L839.12 363.792C839.009 363.854 838.83 363.945 838.584 364.056C838.047 364.298 837.39 364.541 836.609 364.768C835.01 365.233 833.11 365.571 830.898 365.724C830.716 365.737 830.579 365.894 830.591 366.076C830.604 366.258 830.762 366.395 830.944 366.383C833.203 366.226 835.149 365.881 836.794 365.402C837.605 365.166 838.291 364.912 838.856 364.658L839.068 364.559C839.296 364.451 839.456 364.364 839.548 364.306C839.703 364.21 839.751 364.006 839.654 363.851Z" fill="#DD936F"/>
<path fill-rule="evenodd" clip-rule="evenodd" d="M847.164 344.955L847.778 365.964L905.148 366.052C911.933 365.855 917.272 360.203 917.074 353.43C916.876 346.656 911.215 341.325 904.429 341.524L847.164 344.955Z" fill="#E4EBF7"/>
<path d="M900.621 340.266L846.819 344.525C846.604 344.542 846.436 344.71 846.415 344.919L846.413 344.977L847.028 365.987C847.035 366.205 847.199 366.382 847.41 366.41L847.469 366.414L905.148 366.493C905.391 366.493 905.589 366.296 905.589 366.053C905.589 365.83 905.424 365.646 905.209 365.616L905.149 365.612L847.898 365.534L847.307 345.37L900.691 341.143C900.914 341.126 901.084 340.946 901.096 340.73L901.096 340.67C901.078 340.448 900.898 340.277 900.681 340.265L900.621 340.266Z" fill="#A3B5D6"/>
<path d="M856.055 345.873C855.832 345.88 855.653 346.051 855.63 346.266L855.627 346.326L856.149 364.166C856.157 364.409 856.36 364.6 856.603 364.593C856.826 364.587 857.006 364.416 857.029 364.2L857.031 364.14L856.509 346.301C856.502 346.058 856.299 345.866 856.055 345.873Z" fill="#A3B5D6"/>
</svg>
