<svg width="1404" height="1302" viewBox="0 0 1404 1302" fill="none" xmlns="http://www.w3.org/2000/svg">
<path opacity="0.503534" d="M670.724 1267.35C996.773 1267.35 1261.09 1003.03 1261.09 676.982C1261.09 350.933 996.773 86.6179 670.724 86.6179C344.674 86.6179 80.3595 350.933 80.3595 676.982C80.3595 1003.03 344.674 1267.35 670.724 1267.35Z" fill="#EDEDED"/>
<path fill-rule="evenodd" clip-rule="evenodd" d="M1136.89 473.354C1087.74 473.354 1047.89 433.506 1047.89 384.352C1047.89 335.198 1087.74 295.35 1136.89 295.35C1186.04 295.35 1225.89 335.198 1225.89 384.352C1225.89 433.506 1186.04 473.354 1136.89 473.354ZM1404 424.612V344.091L1340.54 327.966C1335.88 311.117 1329.2 295.114 1320.75 280.236L1354.23 223.945L1297.3 167.008L1241.01 200.488C1226.13 192.044 1210.12 185.358 1193.28 180.703L1177.15 117.242H1096.63L1080.5 180.703C1063.65 185.358 1047.65 192.044 1032.77 200.488L976.483 167.008L919.546 223.945L953.026 280.236C944.584 295.114 937.896 311.118 933.241 327.966L869.78 344.091V424.612L933.241 440.738C937.896 457.586 944.584 473.589 953.026 488.468L919.546 544.759L976.483 601.696L1032.77 568.216C1047.65 576.659 1063.65 583.346 1080.5 588.001L1096.63 651.462H1177.15L1193.28 588.001C1210.12 583.346 1226.13 576.659 1241.01 568.216L1297.3 601.696L1354.23 544.759L1320.75 488.468C1329.2 473.589 1335.88 457.586 1340.54 440.738L1404 424.612Z" fill="#597EF7"/>
<path fill-rule="evenodd" clip-rule="evenodd" d="M80.3593 420.416L80.3593 265.124C80.3593 245.547 96.247 229.53 115.662 229.53L271.537 229.53C290.954 229.53 306.841 245.547 306.841 265.124L306.841 420.416C306.841 439.994 290.954 456.012 271.537 456.012H115.662C96.247 456.012 80.3593 439.994 80.3593 420.416Z" fill="#7DB308"/>
<path d="M1156.61 358.448H221.723C205.665 358.448 192.648 371.466 192.648 387.524V1058.89C192.648 1074.95 205.665 1087.97 221.723 1087.97H1156.61C1172.67 1087.97 1185.68 1074.95 1185.68 1058.89V387.524C1185.68 371.466 1172.67 358.448 1156.61 358.448Z" fill="#E4EBF7"/>
<path d="M1084.98 488.168H293.35C287.246 488.168 282.297 493.117 282.297 499.221V1010.12C282.297 1016.23 287.246 1021.17 293.35 1021.17H1084.98C1091.09 1021.17 1096.04 1016.23 1096.04 1010.12V499.221C1096.04 493.117 1091.09 488.168 1084.98 488.168Z" fill="#4E5C93"/>
<path d="M942.07 651.874H391.286V677.743H942.07V651.874Z" fill="white"/>
<path d="M666.663 741.862H391.271V767.731H666.663V741.862Z" fill="#FAAD14"/>
<path d="M666.663 921.838H391.271V947.707H666.663V921.838Z" fill="#E4EBF7"/>
<path d="M556.491 561.543H391.255V587.412H556.491V561.543Z" fill="#E4EBF7"/>
<path d="M805.021 741.519H722.268V767.388H805.021V741.519Z" fill="#E4EBF7"/>
<path d="M804.366 831.85H391.278V857.719H804.366V831.85Z" fill="white"/>
<path d="M219.247 324.805H1158.59C1173.28 324.805 1185.19 336.467 1185.19 350.852V428.47H192.648V350.852C192.648 336.467 204.557 324.805 219.247 324.805Z" fill="#4E5C93"/>
<path d="M249.503 395.228C259.989 395.228 268.489 386.905 268.489 376.638C268.489 366.37 259.989 358.047 249.503 358.047C239.018 358.047 230.518 366.37 230.518 376.638C230.518 386.905 239.018 395.228 249.503 395.228Z" fill="#FF7A46"/>
<path d="M320.413 395.228C330.898 395.228 339.398 386.905 339.398 376.638C339.398 366.37 330.898 358.047 320.413 358.047C309.927 358.047 301.427 366.37 301.427 376.638C301.427 386.905 309.927 395.228 320.413 395.228Z" fill="#FAAD14"/>
<path d="M391.333 395.228C401.818 395.228 410.318 386.905 410.318 376.638C410.318 366.37 401.818 358.047 391.333 358.047C380.847 358.047 372.347 366.37 372.347 376.638C372.347 386.905 380.847 395.228 391.333 395.228Z" fill="#BAE637"/>
<mask id="mask0_45_1081" style="mask-type:alpha" maskUnits="userSpaceOnUse" x="0" y="686" width="438" height="541">
<path d="M0 686.44H437.773V1226.64H0V686.44Z" fill="white"/>
</mask>
<g mask="url(#mask0_45_1081)">
<path fill-rule="evenodd" clip-rule="evenodd" d="M339.381 686.44H98.3923C90.5534 686.44 84.0079 692.261 82.9103 700.021C75.7468 750.663 29.5703 776.698 9.40158 785.479C3.70312 787.959 0 793.561 0 799.776V1005.85C0 1140.71 218.887 1226.64 218.887 1226.64C218.887 1226.64 437.773 1140.71 437.773 1005.85V799.775C437.773 793.561 434.07 787.959 428.371 785.479C408.203 776.698 362.026 750.663 354.863 700.021C353.765 692.261 347.22 687.091 339.381 687.091V686.44Z" fill="#ADC6FF"/>
</g>
<path fill-rule="evenodd" clip-rule="evenodd" d="M319.122 726.587C322.092 735.764 326.068 744.617 331.023 753.07C338.309 765.493 347.737 777.073 359.047 787.486C371.731 799.164 385.136 807.899 396.786 814.215V1004.74C396.786 1056.31 347.395 1101.99 305.96 1131.23C272.276 1154.99 237.97 1172.08 218.86 1180.82C200.058 1172.23 166.518 1155.54 133.025 1132.08C104.686 1112.22 82.4069 1091.74 66.8059 1071.2C58.3125 1060.01 51.8308 1048.8 47.5408 1037.86C43.1305 1026.62 40.9862 1015.79 40.9862 1004.74V814.215C52.6356 807.899 66.0428 799.163 78.7259 787.486C90.0356 777.073 99.4639 765.494 106.749 753.07C111.705 744.618 115.681 735.764 118.652 726.587H319.122Z" fill="#597EF7"/>
<path fill-rule="evenodd" clip-rule="evenodd" d="M229.384 833.815L157.437 942.985C153.566 948.903 157.728 956.182 164.707 956.182H196.935L157.311 1030.75C154.354 1036.78 161.972 1042.37 166.643 1037.6L274.411 929.732C279.91 924.119 276.01 914.531 268.228 914.531H219.493L239.881 838.554C241.473 832.087 233.012 828.267 229.384 833.815Z" fill="white"/>
<path fill-rule="evenodd" clip-rule="evenodd" d="M1133.86 1088.01C1123.91 1068.48 1131.67 1044.58 1151.2 1034.63C1170.73 1024.68 1194.62 1032.45 1204.57 1051.98C1214.52 1071.5 1206.76 1095.4 1187.23 1105.35C1167.7 1115.3 1143.81 1107.53 1133.86 1088.01ZM1207.29 1184.25L1239.28 1167.95L1232.84 1139.48C1238.59 1134.22 1243.59 1128.32 1247.79 1121.96L1276.93 1123.86L1288.03 1089.72L1263.33 1074.14C1263.68 1066.52 1263.09 1058.8 1261.53 1051.17L1283.48 1031.92L1267.18 999.929L1238.7 1006.37C1233.44 1000.62 1227.55 995.614 1221.18 991.412L1223.09 962.273L1188.95 951.179L1173.36 975.873C1165.74 975.531 1158.03 976.114 1150.39 977.675L1131.14 955.728L1099.15 972.027L1105.59 1000.5C1099.84 1005.76 1094.84 1011.66 1090.64 1018.02L1061.5 1016.12L1050.4 1050.26L1075.1 1065.85C1074.76 1073.47 1075.34 1081.18 1076.9 1088.81L1054.95 1108.06L1071.25 1140.05L1099.73 1133.61C1104.99 1139.36 1110.88 1144.37 1117.25 1148.57L1115.34 1177.71L1149.49 1188.8L1165.07 1164.11C1172.69 1164.45 1180.4 1163.87 1188.04 1162.31L1207.29 1184.25Z" fill="#FF885A"/>
<g opacity="0.21031">
<path opacity="0.21031" fill-rule="evenodd" clip-rule="evenodd" d="M1288.31 808.567V766.571C1288.31 761.276 1292.61 756.945 1297.86 756.945H1340.01C1345.26 756.945 1349.56 761.276 1349.56 766.571V808.567C1349.56 813.861 1345.26 818.193 1340.01 818.193H1297.86C1292.61 818.193 1288.31 813.861 1288.31 808.567Z" fill="#597EF7"/>
</g>
<g opacity="0.21031">
<path opacity="0.21031" fill-rule="evenodd" clip-rule="evenodd" d="M698.872 1250.92L728.568 1221.22C732.312 1217.48 738.412 1217.45 742.125 1221.16L771.932 1250.97C775.645 1254.68 775.621 1260.79 771.877 1264.53L742.181 1294.22C738.438 1297.97 732.336 1297.99 728.623 1294.28L698.816 1264.47C695.104 1260.76 695.129 1254.66 698.872 1250.92Z" fill="#597EF7"/>
</g>
<g opacity="0.21031">
<path opacity="0.21031" fill-rule="evenodd" clip-rule="evenodd" d="M531.367 73.0042L590.758 13.6129C598.246 6.12562 610.448 6.0762 617.873 13.5015L677.487 73.1157C684.913 80.5417 684.864 92.7436 677.376 100.231L617.985 159.622C610.498 167.109 598.295 167.16 590.869 159.734L531.255 100.119C523.83 92.6942 523.88 80.4915 531.367 73.0042Z" fill="#597EF7"/>
</g>
</svg>
