<svg width="100" height="100" viewBox="0 0 100 100" fill="none" xmlns="http://www.w3.org/2000/svg">
<path fill-rule="evenodd" clip-rule="evenodd" d="M81.0583 20.8333C79.3333 16.1458 66.0854 12.5 50 12.5C33.9167 12.5 20.6667 16.1458 18.9417 20.8333H18.75V79.1667C18.75 83.7708 32.7417 87.5 50 87.5C67.2583 87.5 81.25 83.7708 81.25 79.1667V20.8333H81.0583ZM77.0833 22.2208C76.9333 22.0542 76.5458 21.675 75.6583 21.1625C74.3417 20.4042 72.3917 19.625 69.825 18.9312C64.7229 17.55 57.7646 16.6667 50 16.6667C42.2354 16.6667 35.2812 17.55 30.1729 18.9312C27.6104 19.625 25.6583 20.4042 24.3417 21.1625C23.4542 21.675 23.0667 22.0542 22.9167 22.2208V78.5271C23.0312 78.6187 23.1958 78.7396 23.4271 78.8854C24.5042 79.5646 26.3396 80.3292 28.9771 81.0333C34.1917 82.4229 41.625 83.3333 50 83.3333C58.375 83.3333 65.8083 82.4229 71.0229 81.0333C73.6604 80.3292 75.4958 79.5646 76.5729 78.8875C76.8021 78.7396 76.9687 78.6187 77.0833 78.5271V22.2208ZM77.3125 78.3042C77.3167 78.3042 77.3063 78.3208 77.2792 78.35C77.2887 78.3337 77.3006 78.319 77.3146 78.3063L77.3125 78.3042ZM22.6875 78.3042L22.7208 78.35C22.6938 78.3208 22.6833 78.3063 22.6854 78.3063L22.6875 78.3042Z" fill="#7A2048"/>
<path fill-rule="evenodd" clip-rule="evenodd" d="M77.1771 21.4062L77.1604 21.4354C77.1645 21.4249 77.1701 21.4151 77.1771 21.4062V21.4062ZM76.7146 21.875C76.6069 21.7881 76.4964 21.7048 76.3833 21.625C75.3208 20.8708 73.5104 20.0208 70.9 19.2375C65.7292 17.6854 58.3417 16.6667 50 16.6667C41.6583 16.6667 34.2708 17.6875 29.1 19.2375C26.4896 20.0208 24.6792 20.8708 23.6167 21.625C23.5029 21.7047 23.3917 21.7881 23.2833 21.875C23.3771 21.95 23.4875 22.0333 23.6167 22.125C24.6792 22.8792 26.4896 23.7292 29.1 24.5125C34.2708 26.0646 41.6583 27.0833 50 27.0833C58.3417 27.0833 65.7292 26.0625 70.9 24.5125C73.5104 23.7292 75.3208 22.8792 76.3833 22.125C76.5125 22.0333 76.6229 21.95 76.7167 21.875H76.7146ZM22.8229 21.4062L22.8396 21.4354C22.8325 21.4267 22.8268 21.4168 22.8229 21.4062V21.4062ZM22.8229 22.3438L22.8396 22.3146C22.8355 22.3251 22.8299 22.3349 22.8229 22.3438ZM77.1604 22.3146C77.1675 22.3233 77.1732 22.3332 77.1771 22.3438L77.1604 22.3146ZM50 31.25C67.2583 31.25 81.25 27.0521 81.25 21.875C81.25 16.6979 67.2583 12.5 50 12.5C32.7417 12.5 18.75 16.6979 18.75 21.875C18.75 27.0521 32.7417 31.25 50 31.25Z" fill="#7A2048"/>
<path fill-rule="evenodd" clip-rule="evenodd" d="M18.75 40.625C18.75 45.8021 32.7417 50 50 50C67.2583 50 81.25 45.8021 81.25 40.625H76.7146C76.6069 40.7119 76.4964 40.7952 76.3833 40.875C75.3208 41.6292 73.5104 42.4792 70.9 43.2625C65.7292 44.8146 58.3417 45.8333 50 45.8333C41.6583 45.8333 34.2708 44.8125 29.1 43.2625C26.4896 42.4792 24.6792 41.6292 23.6167 40.875C23.5029 40.7953 23.3917 40.7119 23.2833 40.625H18.75V40.625ZM22.8229 41.0938L22.8396 41.0646C22.8355 41.0751 22.8299 41.0849 22.8229 41.0938V41.0938ZM77.1604 41.0646C77.1675 41.0733 77.1732 41.0832 77.1771 41.0938L77.1604 41.0646Z" fill="#7A2048"/>
<path fill-rule="evenodd" clip-rule="evenodd" d="M18.75 59.375C18.75 64.5521 32.7417 68.75 50 68.75C67.2583 68.75 81.25 64.5521 81.25 59.375H76.7146C76.6069 59.4619 76.4964 59.5452 76.3833 59.625C75.3208 60.3792 73.5104 61.2292 70.9 62.0125C65.7292 63.5646 58.3417 64.5833 50 64.5833C41.6583 64.5833 34.2708 63.5625 29.1 62.0125C26.4896 61.2292 24.6792 60.3792 23.6167 59.625C23.5029 59.5453 23.3917 59.4619 23.2833 59.375H18.75V59.375ZM22.8229 59.8438L22.8396 59.8146C22.8355 59.8251 22.8299 59.8349 22.8229 59.8438V59.8438ZM77.1604 59.8146C77.1675 59.8233 77.1732 59.8332 77.1771 59.8438L77.1604 59.8146Z" fill="#7A2048"/>
<path d="M62.5 76.0416C62.5 76.8704 62.1708 77.6653 61.5847 78.2513C60.9987 78.8374 60.2038 79.1666 59.375 79.1666C58.5462 79.1666 57.7513 78.8374 57.1653 78.2513C56.5792 77.6653 56.25 76.8704 56.25 76.0416C56.25 75.2128 56.5792 74.418 57.1653 73.8319C57.7513 73.2459 58.5462 72.9166 59.375 72.9166C60.2038 72.9166 60.9987 73.2459 61.5847 73.8319C62.1708 74.418 62.5 75.2128 62.5 76.0416V76.0416Z" fill="#7A2048"/>
<path d="M72.9167 73.9584C72.9167 74.7872 72.5874 75.582 72.0014 76.1681C71.4153 76.7541 70.6205 77.0834 69.7917 77.0834C68.9629 77.0834 68.168 76.7541 67.582 76.1681C66.9959 75.582 66.6667 74.7872 66.6667 73.9584C66.6667 73.1296 66.9959 72.3347 67.582 71.7487C68.168 71.1626 68.9629 70.8334 69.7917 70.8334C70.6205 70.8334 71.4153 71.1626 72.0014 71.7487C72.5874 72.3347 72.9167 73.1296 72.9167 73.9584V73.9584Z" fill="#7A2048"/>
</svg>
