<svg width="100" height="100" viewBox="0 0 100 100" fill="none" xmlns="http://www.w3.org/2000/svg">
<path d="M65.4875 10.2937C65.6081 9.9014 65.6503 9.48915 65.6116 9.08052C65.573 8.67189 65.4542 8.27487 65.2621 7.91214C65.07 7.54942 64.8083 7.22807 64.4921 6.96647C64.1758 6.70487 63.811 6.50812 63.4187 6.38747C63.0264 6.26682 62.6141 6.22462 62.2055 6.26329C61.7969 6.30196 61.3999 6.42073 61.0371 6.61284C60.6744 6.80494 60.3531 7.0666 60.0915 7.38289C59.8299 7.69918 59.6331 8.0639 59.5125 8.45622L34.5125 89.7062C34.2688 90.4986 34.3499 91.3552 34.7378 92.0878C35.1258 92.8204 35.7889 93.3688 36.5812 93.6125C37.3736 93.8561 38.2302 93.7751 38.9628 93.3871C39.6954 92.9991 40.2438 92.3361 40.4875 91.5437L65.4875 10.2937V10.2937ZM30.3375 25.9125C30.6285 26.2028 30.8594 26.5476 31.0169 26.9273C31.1745 27.3069 31.2556 27.7139 31.2556 28.125C31.2556 28.536 31.1745 28.943 31.0169 29.3227C30.8594 29.7023 30.6285 30.0472 30.3375 30.3375L10.6687 50L30.3375 69.6625C30.9243 70.2493 31.2539 71.0451 31.2539 71.875C31.2539 72.7048 30.9243 73.5007 30.3375 74.0875C29.7507 74.6743 28.9548 75.0039 28.125 75.0039C27.2951 75.0039 26.4993 74.6743 25.9125 74.0875L4.03747 52.2125C3.74645 51.9222 3.51556 51.5773 3.35802 51.1977C3.20048 50.818 3.11938 50.411 3.11938 50C3.11938 49.5889 3.20048 49.1819 3.35802 48.8023C3.51556 48.4226 3.74645 48.0778 4.03747 47.7875L25.9125 25.9125C26.2028 25.6214 26.5476 25.3906 26.9273 25.233C27.3069 25.0755 27.7139 24.9944 28.125 24.9944C28.536 24.9944 28.943 25.0755 29.3227 25.233C29.7023 25.3906 30.0472 25.6214 30.3375 25.9125V25.9125ZM69.6625 25.9125C69.3714 26.2028 69.1406 26.5476 68.983 26.9273C68.8255 27.3069 68.7444 27.7139 68.7444 28.125C68.7444 28.536 68.8255 28.943 68.983 29.3227C69.1406 29.7023 69.3714 30.0472 69.6625 30.3375L89.3312 50L69.6625 69.6625C69.3719 69.953 69.1414 70.298 68.9842 70.6776C68.827 71.0572 68.746 71.4641 68.746 71.875C68.746 72.2859 68.827 72.6928 68.9842 73.0724C69.1414 73.452 69.3719 73.7969 69.6625 74.0875C69.953 74.378 70.298 74.6085 70.6776 74.7657C71.0572 74.923 71.4641 75.0039 71.875 75.0039C72.2859 75.0039 72.6927 74.923 73.0724 74.7657C73.452 74.6085 73.7969 74.378 74.0875 74.0875L95.9625 52.2125C96.2535 51.9222 96.4844 51.5773 96.6419 51.1977C96.7995 50.818 96.8806 50.411 96.8806 50C96.8806 49.5889 96.7995 49.1819 96.6419 48.8023C96.4844 48.4226 96.2535 48.0778 95.9625 47.7875L74.0875 25.9125C73.7972 25.6214 73.4523 25.3906 73.0727 25.233C72.693 25.0755 72.286 24.9944 71.875 24.9944C71.4639 24.9944 71.0569 25.0755 70.6773 25.233C70.2976 25.3906 69.9528 25.6214 69.6625 25.9125V25.9125Z" fill="#7A2048"/>
</svg>
