<svg width="100" height="100" viewBox="0 0 100 100" fill="none" xmlns="http://www.w3.org/2000/svg">
<path d="M89.4 42.3083C89.9125 45.0541 90.1916 47.9249 90.1916 50.9208C90.1916 74.3541 74.5083 91.0166 50.8208 91.0166C45.434 91.0183 40.0996 89.9584 35.1225 87.8977C30.1453 85.8371 25.6231 82.8158 21.814 79.0068C18.0049 75.1977 14.9837 70.6754 12.923 65.6983C10.8623 60.7212 9.8025 55.3868 9.80414 49.9999C9.8025 44.6131 10.8623 39.2787 12.923 34.3016C14.9837 29.3245 18.0049 24.8022 21.814 20.9931C25.6231 17.184 30.1453 14.1628 35.1225 12.1021C40.0996 10.0414 45.434 8.98164 50.8208 8.98328C61.8958 8.98328 71.15 13.0583 78.25 19.6749L66.6875 31.2374V31.2083C62.3833 27.1083 56.9208 25.0041 50.8208 25.0041C37.2875 25.0041 26.2875 36.4375 26.2875 49.975C26.2875 63.5083 37.2875 74.9666 50.8208 74.9666C63.1 74.9666 71.4583 67.9458 73.175 58.3041H50.8208V42.3083H89.4041H89.4Z" fill="#7A2048"/>
</svg>
