<svg width="100" height="100" viewBox="0 0 100 100" fill="none" xmlns="http://www.w3.org/2000/svg">
<path d="M62.5 91.6959H20.8334V83.3625H62.5V91.6959ZM91.6667 16.6667L71.9375 41.4792L71.0209 42.6042L47.5625 72.5625C46.7883 73.3368 45.8691 73.951 44.8575 74.37C43.8459 74.789 42.7617 75.0047 41.6667 75.0047C40.5717 75.0047 39.4875 74.789 38.4759 74.37C37.4643 73.951 36.5451 73.3368 35.7709 72.5625C34.9966 71.7883 34.3824 70.8691 33.9634 69.8575C33.5444 68.8459 33.3287 67.7617 33.3287 66.6667C33.3287 65.5718 33.5444 64.4875 33.9634 63.4759C34.3824 62.4643 34.9966 61.5451 35.7709 60.7709L91.6667 16.6667ZM11.0209 30.1417C5.00225 39.7815 2.83758 51.3353 4.95837 62.5H8.33337V58.3334C8.28796 50.1291 10.7443 42.106 15.375 35.3334L11.0209 30.1417ZM50 8.33338C43.6279 8.33196 37.326 9.66437 31.4998 12.2449C25.6735 14.8254 20.4519 18.5969 16.1709 23.3167L20.9375 29C26.5939 23.7989 33.9828 20.8879 41.6667 20.8334C49.3921 20.8872 56.8183 23.8268 62.4875 29.075L77.2792 17.4C69.4026 11.5136 59.8332 8.33305 50 8.33338V8.33338ZM78.4584 46.6667L77.4875 47.8625L74.4542 51.7375C74.8087 53.9185 74.9912 56.1239 75 58.3334V62.5H95.0417C97.0189 52.0725 95.2746 41.2818 90.1125 32.0084L78.4584 46.6667Z" fill="#7A2048"/>
</svg>
