<svg width="100" height="100" viewBox="0 0 100 100" fill="none" xmlns="http://www.w3.org/2000/svg">
<path d="M16.6667 25V66.6666H37.5V50C37.5 47.7898 38.378 45.6702 39.9408 44.1074C41.5036 42.5446 43.6232 41.6666 45.8333 41.6666H66.6667C68.8768 41.6666 70.9964 42.5446 72.5592 44.1074C74.122 45.6702 75 47.7898 75 50V66.6666H83.3333V25H16.6667ZM0 83.3333V75H16.6667C14.4565 75 12.3369 74.122 10.7741 72.5592C9.21131 70.9964 8.33333 68.8768 8.33333 66.6666V25C8.33333 22.7898 9.21131 20.6702 10.7741 19.1074C12.3369 17.5446 14.4565 16.6666 16.6667 16.6666H83.3333C85.5435 16.6666 87.6631 17.5446 89.2259 19.1074C90.7887 20.6702 91.6667 22.7898 91.6667 25V66.6666C91.6667 68.8768 90.7887 70.9964 89.2259 72.5592C87.6631 74.122 85.5435 75 83.3333 75H100V83.3333H75C75 85.5434 74.122 87.663 72.5592 89.2258C70.9964 90.7886 68.8768 91.6666 66.6667 91.6666H45.8333C43.6232 91.6666 41.5036 90.7886 39.9408 89.2258C38.378 87.663 37.5 85.5434 37.5 83.3333H0ZM47.9167 83.3333C47.3641 83.3333 46.8342 83.5528 46.4435 83.9435C46.0528 84.3342 45.8333 84.8641 45.8333 85.4166C45.8333 85.9692 46.0528 86.4991 46.4435 86.8898C46.8342 87.2805 47.3641 87.5 47.9167 87.5C48.4692 87.5 48.9991 87.2805 49.3898 86.8898C49.7805 86.4991 50 85.9692 50 85.4166C50 84.8641 49.7805 84.3342 49.3898 83.9435C48.9991 83.5528 48.4692 83.3333 47.9167 83.3333ZM64.5833 83.3333C64.0308 83.3333 63.5009 83.5528 63.1102 83.9435C62.7195 84.3342 62.5 84.8641 62.5 85.4166C62.5 85.9692 62.7195 86.4991 63.1102 86.8898C63.5009 87.2805 64.0308 87.5 64.5833 87.5C65.1359 87.5 65.6658 87.2805 66.0565 86.8898C66.4472 86.4991 66.6667 85.9692 66.6667 85.4166C66.6667 84.8641 66.4472 84.3342 66.0565 83.9435C65.6658 83.5528 65.1359 83.3333 64.5833 83.3333ZM54.1667 83.3333V87.5H58.3333V83.3333H54.1667ZM45.8333 50V79.1666H66.6667V50H45.8333Z" fill="#7A2048"/>
</svg>
