<svg width="100" height="100" viewBox="0 0 100 100" fill="none" xmlns="http://www.w3.org/2000/svg">
<path d="M14.21 19.325V56.495C14.21 76.73 30.235 93.13 50 93.13C69.765 93.13 85.79 76.73 85.79 56.495V19.345L49.785 7.23L14.21 19.325ZM49.775 0L92.5 14.37V56.495C92.5 80.52 73.47 100 50 100C26.53 100 7.5 80.52 7.5 56.495V14.37L49.775 0ZM71.87 32.425C71.5436 32.1252 71.1602 31.8942 70.7426 31.7458C70.3251 31.5974 69.8819 31.5346 69.4395 31.5612C68.9971 31.5878 68.5646 31.7032 68.1679 31.9006C67.7711 32.098 67.4181 32.3733 67.13 32.71L45.55 57.555L31.61 42.13C31.3153 41.7998 30.9571 41.5323 30.5569 41.3433C30.1567 41.1544 29.7225 41.0479 29.2803 41.0302C28.838 41.0124 28.3968 41.0839 27.9827 41.2402C27.5686 41.3965 27.1902 41.6345 26.87 41.94C26.2144 42.5666 25.8285 43.4238 25.794 44.33C25.7594 45.2362 26.079 46.1203 26.685 46.795L43.135 64.995C43.4483 65.3472 43.8335 65.6283 44.2645 65.8191C44.6955 66.01 45.1625 66.1063 45.6339 66.1016C46.1053 66.0969 46.5702 65.9912 46.9973 65.7917C47.4244 65.5922 47.8038 65.3035 48.11 64.945L72.145 37.275C72.7382 36.5892 73.0411 35.6995 72.9898 34.7943C72.9385 33.8891 72.5369 33.0393 71.87 32.425V32.425Z" fill="#7A2048"/>
</svg>
